<svg width="24" height="24" viewBox="0 0 24 24" fill="none" xmlns="http://www.w3.org/2000/svg">
<path d="M4.06901 8.38806C3.64366 7.95914 3.64366 7.26373 4.06901 6.83481L9.7841 1.07169C10.2094 0.642771 10.8991 0.642771 11.3244 1.07169L19.9307 9.75035C20.3561 10.1793 20.3561 10.8747 19.9307 11.3036L14.2156 17.0667C13.7903 17.4956 13.1007 17.4956 12.6753 17.0667L4.06901 8.38806Z" fill="#BEBCBD"/>
<path d="M4.09619 9.89581L4.06927 9.92296C3.64393 10.3519 3.64393 11.0473 4.06927 11.4762L12.6756 20.1549C13.1009 20.5838 13.7906 20.5838 14.2159 20.1549L19.931 14.3917C20.3563 13.9628 20.3563 13.2674 19.931 12.8385L19.9041 12.8113L14.2159 18.5473C13.7906 18.9762 13.1009 18.9762 12.6756 18.5473L4.09619 9.89581Z" fill="#BEBCBD"/>
<path d="M4.20199 12.5626L4.06927 12.6964C3.64393 13.1253 3.64393 13.8207 4.06927 14.2497L12.6756 22.9283C13.1009 23.3572 13.7906 23.3572 14.2159 22.9283L19.931 17.1652C20.3563 16.7363 20.3563 16.0409 19.931 15.6119L19.7983 15.4781L14.2159 21.1074C13.7906 21.5363 13.1009 21.5363 12.6756 21.1074L4.20199 12.5626Z" fill="#BEBCBD"/>
</svg>
