<svg width="16" height="17" viewBox="0 0 16 17" fill="none" xmlns="http://www.w3.org/2000/svg">
<path d="M12.5268 4.12653C12.5268 5.57713 10.3942 6.75307 7.76342 6.75307C5.13266 6.75307 3 5.57713 3 4.12653C3 2.67594 5.13266 1.5 7.76342 1.5C10.3942 1.5 12.5268 2.67594 12.5268 4.12653Z" fill="white"/>
<path d="M11.6407 6.75307C10.964 7.65399 9.48236 8.27916 7.76353 8.27916C6.04449 8.27916 4.56284 7.65399 3.88612 6.75307C3.32821 7.1832 3 7.71003 3 8.27916C3 9.72977 5.13272 10.9057 7.76353 10.9057C10.3941 10.9057 12.5268 9.72977 12.5268 8.27916C12.5268 7.71003 12.1986 7.1832 11.6407 6.75307Z" fill="white"/>
<path d="M11.6408 10.9057C10.9642 11.8066 9.48245 12.4318 7.76342 12.4318C6.0444 12.4318 4.56269 11.8066 3.88608 10.9057C3.32826 11.3358 3 11.8627 3 12.4318C3 13.8824 5.13266 15.0583 7.76342 15.0583C10.3942 15.0583 12.5268 13.8824 12.5268 12.4318C12.5268 11.8627 12.1986 11.3358 11.6408 10.9057Z" fill="white"/>
</svg>
