<svg width="24" height="24" viewBox="0 0 24 24" fill="none" xmlns="http://www.w3.org/2000/svg">
<path d="M6.43522 18.7265L6.89073 18.1375L6.09873 19.7445C6.07093 19.8008 6.05597 19.8627 6.05493 19.9255C6.05389 19.9883 6.06679 20.0506 6.09271 20.1078C6.11863 20.1651 6.15691 20.2158 6.20481 20.2565C6.25271 20.2972 6.30903 20.3267 6.36972 20.343L7.76973 20.718C7.84056 20.7369 7.91508 20.7372 7.98605 20.7188C8.05702 20.7004 8.12201 20.6639 8.17473 20.613C8.65572 20.1485 9.00972 19.7695 9.23622 19.477L9.69222 18.888L8.89972 20.495C8.87193 20.5513 8.85697 20.6132 8.85593 20.676C8.85489 20.7388 8.86779 20.8011 8.89371 20.8583C8.91963 20.9156 8.95792 20.9663 9.00582 21.007C9.05372 21.0477 9.11004 21.0772 9.17073 21.0935L11.1507 21.624C11.2216 21.6429 11.2961 21.6432 11.367 21.6248C11.438 21.6064 11.503 21.5699 11.5557 21.519C12.0367 21.054 12.3907 20.6755 12.6167 20.383L13.0727 19.794L12.2802 21.401C12.2523 21.4574 12.2373 21.5193 12.2363 21.5822C12.2352 21.6451 12.2481 21.7075 12.2741 21.7648C12.3001 21.8221 12.3385 21.8729 12.3865 21.9136C12.4345 21.9543 12.4909 21.9838 12.5517 22L14.2417 22.453C14.3125 22.4719 14.3871 22.4722 14.458 22.4538C14.529 22.4354 14.594 22.399 14.6467 22.348C15.1277 21.883 15.4817 21.504 15.7077 21.2115L16.1637 20.6225L15.3712 22.23C15.3435 22.2864 15.3286 22.3482 15.3277 22.411C15.3267 22.4737 15.3397 22.536 15.3656 22.5932C15.3916 22.6503 15.4299 22.7011 15.4778 22.7417C15.5257 22.7823 15.5821 22.8118 15.6427 22.828L17.6682 23.375L17.7582 23.37C18.0692 23.3535 18.4392 23.252 18.7857 23.07C19.4837 22.702 19.9147 22.0575 20.0087 21.236C20.0587 20.802 20.1207 20.3325 20.2057 19.747C20.2442 19.484 20.2747 19.278 20.3517 18.7665C20.6107 17.048 20.6947 16.3985 20.7532 15.6335L20.7752 15.3435L20.8417 15.275L21.1307 15.2435C21.3485 15.2232 21.5532 15.1306 21.7122 14.9805C21.9637 14.7405 22.0592 14.3855 21.9722 13.9915L21.0922 9.97C21.0212 9.649 20.8282 9.315 20.5497 9.03649C20.2767 8.764 19.9422 8.5645 19.6147 8.4765L16.9602 7.765L16.9072 7.67299L18.1467 3.04999C18.3417 2.322 17.8712 1.55599 17.0927 1.34749L15.2292 0.847988C14.4512 0.639488 13.6607 1.0675 13.4652 1.7955L12.2267 6.41901L12.1347 6.47198L9.36672 5.73049C9.03873 5.6425 8.64873 5.6485 8.27673 5.748C7.89573 5.85 7.56173 6.043 7.34022 6.28549L4.56726 9.32749C4.29524 9.6255 4.20025 9.97999 4.29726 10.314C4.39476 10.6475 4.66874 10.9045 5.06826 11.0295L5.38724 11.1295L5.43726 11.2205L5.35225 11.544C4.85725 13.4155 4.11276 14.753 3.34326 15.0805C2.22925 15.554 1.63375 16.239 1.50524 17.0735C1.38726 17.8395 1.72274 18.6465 2.38626 19.219L2.90275 19.4145L4.65276 19.8835C4.82234 19.9289 5.00089 19.9289 5.17046 19.8834C5.34003 19.838 5.49464 19.7487 5.61876 19.6245C5.97674 19.2665 6.24876 18.9675 6.43525 18.727L6.43522 18.7265ZM19.3582 9.432C19.6897 9.52099 20.0602 9.882 20.1262 10.182L20.9362 13.88C20.9454 13.9219 20.9437 13.9655 20.9311 14.0065C20.9186 14.0476 20.8957 14.0847 20.8647 14.1144C20.8336 14.144 20.7955 14.1651 20.7539 14.1758C20.7123 14.1864 20.6687 14.1861 20.6272 14.175L5.64022 10.16C5.59877 10.1489 5.56087 10.1273 5.53018 10.0973C5.49949 10.0673 5.47703 10.0299 5.46498 9.98872C5.45292 9.94754 5.45167 9.90394 5.46135 9.86213C5.47102 9.82032 5.4913 9.7817 5.52023 9.75L8.07022 6.9525C8.27723 6.7255 8.77874 6.59749 9.11022 6.68648L12.4227 7.57399C12.4862 7.591 12.5523 7.59536 12.6174 7.5868C12.6825 7.57824 12.7453 7.55694 12.8022 7.52412C12.8591 7.49129 12.9089 7.44758 12.9489 7.39549C12.9889 7.3434 13.0182 7.28393 13.0352 7.2205L14.4017 2.1195C14.4187 2.05606 14.4481 1.9966 14.488 1.9445C14.528 1.89241 14.5779 1.84869 14.6347 1.81587C14.6916 1.78304 14.7544 1.76174 14.8195 1.75318C14.8846 1.74462 14.9508 1.74897 15.0142 1.76599L16.8202 2.25C16.8837 2.26699 16.9431 2.29632 16.9952 2.3363C17.0473 2.37628 17.091 2.42614 17.1238 2.48301C17.1567 2.53989 17.178 2.60268 17.1865 2.66779C17.1951 2.7329 17.1907 2.79906 17.1737 2.86249L15.8067 7.9635C15.7725 8.09152 15.7905 8.2279 15.8568 8.34265C15.9231 8.45741 16.0322 8.54116 16.1602 8.5755L19.3582 9.43249V9.432ZM7.39372 16.443C6.60472 17.501 5.87973 18.2965 5.21872 18.829L5.08021 18.941L5.01372 18.955L2.94873 18.39L2.88022 18.315C2.57472 17.983 2.42624 17.5875 2.48223 17.223C2.55923 16.723 2.99922 16.301 3.72923 15.9905C4.47273 15.6745 5.13123 14.8865 5.67273 13.649C5.90772 13.111 6.11523 12.507 6.29122 11.854L6.38223 11.5165L6.47373 11.4635L19.7432 15.019L19.7982 15.0965L19.7797 15.383C19.7332 16.1 19.0687 20.7595 19.0267 21.123C18.9717 21.6015 18.7617 21.943 18.3797 22.1635C18.2235 22.2527 18.0543 22.3168 17.8782 22.3535L17.7607 22.3705L16.3457 21.9915L16.6092 21.516C16.8032 21.165 17.1402 20.4885 17.6192 19.486C17.6472 19.4273 17.6634 19.3637 17.6668 19.2988C17.6703 19.2339 17.6609 19.1689 17.6392 19.1076C17.6175 19.0464 17.584 18.9899 17.5405 18.9416C17.497 18.8933 17.4444 18.854 17.3857 18.826L17.3122 18.791C17.2079 18.7413 17.0895 18.7293 16.9773 18.757C16.8651 18.7847 16.7659 18.8504 16.6967 18.943C15.9082 19.999 15.1842 20.7925 14.5247 21.323L14.3862 21.4345L14.3197 21.4485L13.0882 21.1185L13.3487 20.6435C13.4324 20.4912 13.514 20.3379 13.5937 20.1835C13.7587 19.867 14.0132 19.3445 14.3577 18.6175C14.4143 18.4984 14.4214 18.3618 14.3776 18.2375C14.3337 18.1132 14.2425 18.0112 14.1237 17.954L14.0527 17.92C13.9482 17.8695 13.8294 17.857 13.7166 17.8845C13.6038 17.9121 13.5042 17.978 13.4347 18.071C12.6472 19.126 11.9237 19.9185 11.2642 20.4495L11.1257 20.561L11.0592 20.575L9.83722 20.2475L10.0977 19.7725C10.1813 19.6202 10.263 19.4669 10.3427 19.3125C10.5067 18.997 10.7637 18.47 11.1137 17.732C11.1415 17.6734 11.1575 17.6098 11.1606 17.545C11.1638 17.4802 11.154 17.4154 11.132 17.3544C11.11 17.2933 11.0761 17.2373 11.0322 17.1894C10.9884 17.1415 10.9356 17.1028 10.8767 17.0755L10.7987 17.0395C10.6946 16.9913 10.577 16.9804 10.4657 17.0086C10.3545 17.0368 10.2563 17.1024 10.1877 17.1945C9.39922 18.2505 8.67473 19.0455 8.01322 19.578L7.87471 19.6895L7.80822 19.7035L7.04322 19.4985L7.30323 19.024C7.38622 18.8715 7.46823 18.7185 7.54822 18.564C7.71172 18.248 7.96872 17.721 8.31873 16.983C8.34655 16.9243 8.36251 16.8607 8.3657 16.7958C8.36889 16.731 8.35924 16.6661 8.33732 16.605C8.31539 16.5439 8.28162 16.4877 8.23793 16.4396C8.19424 16.3916 8.14149 16.3526 8.08272 16.325L8.00673 16.2895C7.9025 16.2406 7.78459 16.2292 7.67291 16.2571C7.56122 16.2851 7.46261 16.3507 7.39372 16.443Z" fill="black"/>
</svg>
