<svg width="32" height="32" viewBox="0 0 32 32" fill="none" xmlns="http://www.w3.org/2000/svg">
<path d="M25.9373 15.5822H25.1926C24.7941 13.176 23.2633 11.1095 21.1097 9.83779C20.2996 10.9353 19.0018 11.6495 17.5363 11.6495C15.5786 11.6495 13.915 10.3756 13.3249 8.61617L11.0907 6.9242C10.8141 6.71515 10.5615 6.83492 10.5223 7.18986L10.1783 10.4736C9.00891 11.3752 8.09651 12.538 7.53905 13.8641H6.06265C5.47907 13.8598 5 14.3388 5 14.9246V18.1561C5 18.7419 5.47907 19.2209 6.06265 19.2209H7.31911C7.93754 21.098 9.26368 22.6985 11.0188 23.7634V25.8212C11.0188 26.0846 11.2344 26.298 11.4957 26.298H13.8344C14.0957 26.298 14.3113 26.0825 14.3113 25.8212V25.0024C14.8949 25.1091 15.5002 25.1657 16.1187 25.1657C16.7371 25.1657 17.3425 25.1091 17.9261 25.0024V25.8212C17.9261 26.0846 18.1416 26.298 18.403 26.298H20.7417C21.003 26.298 21.2185 26.0825 21.2185 25.8212V23.7634C23.4288 22.422 24.9596 20.2357 25.2536 17.7119H25.9373C26.5253 17.7119 27 17.235 27 16.6471C27 16.0591 26.5253 15.5822 25.9373 15.5822ZM11.1908 14.648C10.5419 14.648 10.0019 14.1973 9.85381 13.5963C10.0302 13.8445 10.3176 14.0057 10.6443 14.0057C11.1821 14.0057 11.6176 13.5701 11.6176 13.0323C11.6176 12.4944 11.1821 12.0589 10.6443 12.0589C10.5985 12.0589 10.5528 12.0676 10.5071 12.072C10.7096 11.9566 10.9404 11.8847 11.1908 11.8847C11.953 11.8847 12.5714 12.5031 12.5714 13.2675C12.5736 14.0274 11.9552 14.648 11.1908 14.648Z" fill="white"/>
<path d="M17.5381 4C15.77 4 14.3328 5.4372 14.3328 7.20538C14.3328 8.97357 15.7721 10.4108 17.5381 10.4108C19.3042 10.4108 20.7414 8.97357 20.7414 7.20538C20.7414 5.4372 19.3042 4 17.5381 4ZM17.7973 8.80808V9.35465H17.1397V8.85598C16.7346 8.83421 16.3361 8.73186 16.1184 8.62734L16.3035 7.88696C16.5626 8.00455 16.9219 8.12214 17.3204 8.12214C17.6144 8.12214 17.8234 8.0481 17.8234 7.8739C17.8234 7.7084 17.6492 7.60606 17.2224 7.48411C16.5931 7.29684 16.1467 7.02465 16.1467 6.48243C16.1467 5.99683 16.5103 5.6114 17.1701 5.48946V4.99297H17.8234V5.44808C18.2219 5.45897 18.4941 5.53301 18.701 5.61794L18.5159 6.33C18.3591 6.27121 18.076 6.14926 17.6448 6.14926C17.303 6.14926 17.1984 6.26032 17.1984 6.38009C17.1984 6.51292 17.3944 6.61526 17.88 6.76987C18.6073 6.99416 18.873 7.29902 18.873 7.7868C18.873 8.28546 18.4919 8.69049 17.7973 8.80808Z" fill="white"/>
</svg>
