<svg width="24" height="24" viewBox="0 0 24 24" fill="none" xmlns="http://www.w3.org/2000/svg">
<path d="M15.1044 7.66694C14.4533 6.34738 13.0988 5.4375 11.5268 5.4375C9.42121 5.4375 7.69991 7.06988 7.55064 9.13735C6.00242 9.57879 4.875 10.9317 4.875 12.5323C4.875 14.4204 6.44386 15.9718 8.42241 16.0797H15.0742C17.2766 16.0797 19.0646 14.1933 19.0646 11.867C19.0646 9.62484 17.3132 7.79873 15.1044 7.66694Z" fill="#2996E4"/>
<path d="M9.92342 16.6119H13.744C14.7975 16.6119 15.6525 17.4669 15.6543 18.5187C15.6543 19.4893 15.1063 20.3836 13.4292 20.4352C13.169 20.4432 12.9642 20.225 12.9642 19.9647C12.9642 19.6941 13.184 19.4813 13.4538 19.4603C14.016 19.4164 14.6982 19.2388 14.6982 18.5204C14.6982 17.9945 14.2716 17.5661 13.744 17.5661H9.92342C9.66048 17.5661 9.44629 17.352 9.44629 17.089C9.44629 16.8261 9.66048 16.6119 9.92342 16.6119Z" fill="#2996E4"/>
<rect x="8.4375" y="18.1875" width="4.6875" height="0.9375" rx="0.46875" fill="#2996E4"/>
</svg>
