<svg width="32" height="32" viewBox="0 0 32 32" fill="none" xmlns="http://www.w3.org/2000/svg">
<path d="M17.0469 21.3316C16.7656 21.4879 16.6688 21.841 16.825 22.1223L18.8094 25.666H13.25L16.5188 20.0879C16.5875 19.9691 16.6094 19.8379 16.5906 19.7098C16.5969 19.6785 16.6 19.6473 16.6 19.6129V12.1754L19.2875 7.58789C19.3938 7.40664 19.3938 7.18477 19.2906 7.00664C19.1875 6.82539 18.9938 6.71289 18.7875 6.71289H13.25C13.0406 6.71289 12.85 6.82539 12.7469 7.00664C12.6438 7.18789 12.6438 7.40977 12.75 7.59102L14.2875 10.2035C14.45 10.4816 14.8063 10.5723 15.0844 10.4098C15.3594 10.2473 15.4531 9.89102 15.2906 9.61602L14.2656 7.87539H17.7719L15.5156 11.7223C15.5094 11.7316 15.5063 11.7441 15.5 11.7535C15.4906 11.7723 15.4813 11.791 15.475 11.8098L15.4563 11.866C15.4531 11.8848 15.4469 11.9004 15.4438 11.9191C15.4406 11.941 15.4375 11.9629 15.4375 11.9848C15.4375 11.9941 15.4344 12.0066 15.4344 12.016V19.6348L11.7344 25.9566C11.6281 26.1348 11.6281 26.3598 11.7313 26.5379C11.8344 26.7191 12.0281 26.8285 12.2344 26.8285H19.8C20.0063 26.8285 20.1969 26.7191 20.3 26.541C20.4031 26.3629 20.4063 26.1441 20.3063 25.9629L17.8375 21.5535C17.6813 21.2754 17.3281 21.1754 17.0469 21.3316Z" fill="url(#paint0_linear_1_1853)"/>
<path d="M21.0973 21.2252L19.3723 18.2814V13.7377L21.0973 10.7939L24.6442 4.74082C24.8129 4.47207 24.9098 4.15645 24.9098 3.81895C24.9098 2.85645 24.1317 2.0752 23.166 2.0752H8.87229C8.24729 2.0752 7.67229 2.40957 7.35979 2.9502C7.05041 3.49082 7.05354 4.15957 7.36916 4.7002L10.941 10.7971L12.666 13.7408V18.2877L10.941 21.2283L7.36604 27.3221C7.05041 27.8627 7.04729 28.5283 7.35666 29.0689C7.66604 29.6096 8.24416 29.9439 8.86916 29.9439H23.166C23.791 29.9439 24.366 29.6096 24.6785 29.0689C24.9879 28.5283 24.9848 27.8596 24.6692 27.3221L21.0973 21.2252ZM16.0192 28.2033H8.86916L12.441 22.1064L14.4067 18.7564V13.2658L12.4442 9.9127L8.87229 3.81582H23.166L19.591 9.9127L17.6285 13.2627V18.7533L19.591 22.1033L23.1629 28.2002H16.0192V28.2033Z" fill="url(#paint1_linear_1_1853)"/>
<defs>
<linearGradient id="paint0_linear_1_1853" x1="16.0168" y1="6.71289" x2="16.0168" y2="26.8285" gradientUnits="userSpaceOnUse">
<stop stop-color="#C69B5C" stop-opacity="0.53"/>
<stop offset="0.489583" stop-color="#CA9C59" stop-opacity="0.79"/>
<stop offset="1" stop-color="#C69B5C" stop-opacity="0.46"/>
</linearGradient>
<linearGradient id="paint1_linear_1_1853" x1="16.0184" y1="2" x2="16.0184" y2="30" gradientUnits="userSpaceOnUse">
<stop stop-color="#CDCDCD" stop-opacity="0.41"/>
<stop offset="0.489583" stop-color="#B47133" stop-opacity="0.4"/>
<stop offset="1" stop-color="#CCCCCC"/>
</linearGradient>
</defs>
</svg>
