<svg width="16" height="16" viewBox="0 0 16 16" fill="none" xmlns="http://www.w3.org/2000/svg">
<path d="M6.88988 14.585C7.47988 14.585 8.05238 14.46 8.60738 14.21C9.16238 13.96 9.65738 13.62 10.0924 13.19C10.5274 12.76 10.8749 12.2625 11.1349 11.6975C11.3949 11.1325 11.5249 10.535 11.5249 9.90502V9.32002C11.5249 9.09002 11.5274 8.84252 11.5324 8.57752C11.5374 8.31252 11.5399 8.05002 11.5399 7.79002V7.08502C11.5399 6.79502 11.5699 6.56502 11.6299 6.39502C11.6899 6.22502 11.8199 6.14502 12.0199 6.15502C12.1699 6.15502 12.3424 6.15252 12.5374 6.14752C12.7324 6.14252 12.9099 6.14002 13.0699 6.14002C13.3299 6.14002 13.4974 6.07002 13.5724 5.93002C13.6474 5.79002 13.5949 5.60502 13.4149 5.37502C13.2349 5.13502 13.0224 4.86002 12.7774 4.55002C12.5324 4.24002 12.2799 3.92002 12.0199 3.59002C11.7599 3.26002 11.5049 2.93502 11.2549 2.61502C11.0049 2.29502 10.7799 2.01002 10.5799 1.76002C10.3999 1.53002 10.2299 1.41252 10.0699 1.40752C9.90988 1.40252 9.73988 1.50502 9.55988 1.71502C9.37988 1.93502 9.16738 2.19252 8.92238 2.48752C8.67738 2.78252 8.42488 3.09002 8.16488 3.41002C7.90488 3.73002 7.64988 4.04502 7.39988 4.35502C7.14988 4.66502 6.92488 4.94002 6.72488 5.18002C6.50488 5.44002 6.41988 5.65752 6.46988 5.83252C6.51988 6.00752 6.67988 6.09502 6.94988 6.09502C7.02988 6.09502 7.12738 6.09752 7.24238 6.10252C7.35738 6.10752 7.47988 6.11252 7.60988 6.11752C7.73988 6.12252 7.86488 6.12752 7.98488 6.13252C8.10488 6.13752 8.20988 6.14002 8.29988 6.14002C8.48988 6.14002 8.60738 6.19752 8.65238 6.31252C8.69738 6.42752 8.71988 6.58502 8.71988 6.78502C8.70988 7.23502 8.70488 7.74002 8.70488 8.30002V9.86002C8.70488 10.09 8.65238 10.32 8.54738 10.55C8.44238 10.78 8.30238 10.99 8.12738 11.18C7.95238 11.37 7.74988 11.525 7.51988 11.645C7.28988 11.765 7.04488 11.825 6.78488 11.825H5.73488C5.33488 11.825 4.94738 11.8225 4.57238 11.8175C4.19738 11.8125 3.86988 11.81 3.58988 11.81H3.06488C2.84488 11.81 2.66238 11.8775 2.51738 12.0125C2.37238 12.1475 2.26238 12.3175 2.18738 12.5225C2.11238 12.7275 2.07488 12.95 2.07488 13.19C2.07488 13.43 2.10988 13.6525 2.17988 13.8575C2.24988 14.0625 2.35238 14.2325 2.48738 14.3675C2.62238 14.5025 2.78988 14.57 2.98988 14.57H3.39488H4.09988C4.35988 14.57 4.63738 14.5725 4.93238 14.5775C5.22738 14.5825 5.50988 14.585 5.77988 14.585H6.46988H6.88988Z" fill="#0E95B3"/>
</svg>
