<svg width="16" height="16" viewBox="0 0 16 16" fill="none" xmlns="http://www.w3.org/2000/svg">
<g clip-path="url(#clip0_7_3332)">
<path d="M8.78418 15.0264C9.21468 15.0264 9.50681 14.9239 9.66056 14.7189C9.81431 14.5139 9.89118 14.1859 9.89118 13.7349C9.89118 13.5299 9.89374 13.207 9.89887 12.7662C9.90399 12.3255 9.90656 11.8566 9.90656 11.3594C9.90656 10.8623 9.90912 10.378 9.91424 9.90649C9.91937 9.43499 9.92193 9.06087 9.92193 8.78412C9.92193 8.39462 9.96037 8.08455 10.0372 7.85393C10.1141 7.6233 10.2909 7.51312 10.5677 7.52337C10.7624 7.52337 11.0033 7.51824 11.2903 7.50799C11.5773 7.49774 11.8233 7.49262 12.0283 7.49262C12.3871 7.49262 12.6151 7.3978 12.7125 7.20818C12.8099 7.01855 12.7407 6.76999 12.5049 6.46249C12.2589 6.15499 11.9719 5.79112 11.6439 5.37087C11.3159 4.95062 10.9751 4.52012 10.6215 4.07937C10.2679 3.63862 9.92193 3.20555 9.58368 2.78018C9.24543 2.3548 8.94818 1.97812 8.69193 1.65012C8.45618 1.35287 8.22812 1.19912 8.00774 1.18887C7.78737 1.17862 7.55931 1.31699 7.32356 1.60399C7.07756 1.90124 6.79056 2.24974 6.46256 2.64949C6.13456 3.04924 5.79887 3.4618 5.45549 3.88718C5.11212 4.31255 4.77387 4.7328 4.44074 5.14793C4.10762 5.56305 3.80781 5.93462 3.54131 6.26262C3.24406 6.62137 3.13131 6.91605 3.20306 7.14668C3.27481 7.37731 3.49518 7.49262 3.86418 7.49262H4.23318C4.37668 7.49262 4.52531 7.49518 4.67906 7.5003C4.83281 7.50543 4.98399 7.51312 5.13262 7.52337C5.28124 7.53362 5.41193 7.53874 5.52468 7.53874C5.79118 7.53874 5.95518 7.61562 6.01668 7.76937C6.07818 7.92312 6.10893 8.13324 6.10893 8.39974C6.10893 8.69699 6.10637 9.08649 6.10124 9.56824C6.09612 10.05 6.09356 10.5522 6.09356 11.075C6.09356 11.5977 6.09099 12.1051 6.08587 12.5971C6.08074 13.0891 6.07818 13.4889 6.07818 13.7964C6.07818 13.9296 6.08843 14.068 6.10893 14.2115C6.12943 14.355 6.17812 14.4857 6.25499 14.6036C6.33187 14.7214 6.43693 14.8188 6.57018 14.8957C6.70343 14.9726 6.88793 15.011 7.12368 15.011C7.40043 15.011 7.66693 15.0136 7.92318 15.0187C8.17943 15.0238 8.46643 15.0264 8.78418 15.0264Z" fill="#0E95B3"/>
</g>
<defs>
<clipPath id="clip0_7_3332">
<rect width="15.375" height="15.375" fill="white" transform="matrix(1 0 0 -1 0.3125 15.6875)"/>
</clipPath>
</defs>
</svg>
