<svg width="16" height="16" viewBox="0 0 16 16" fill="none" xmlns="http://www.w3.org/2000/svg">
<path d="M9.11012 14.585C8.52012 14.585 7.94762 14.46 7.39262 14.21C6.83762 13.96 6.34262 13.62 5.90762 13.19C5.47262 12.76 5.12512 12.2625 4.86512 11.6975C4.60512 11.1325 4.47512 10.535 4.47512 9.90502V9.32002C4.47512 9.09002 4.47262 8.84252 4.46762 8.57752C4.46262 8.31252 4.46012 8.05002 4.46012 7.79002V7.08502C4.46012 6.79502 4.43012 6.56502 4.37012 6.39502C4.31012 6.22502 4.18012 6.14502 3.98012 6.15502C3.83012 6.15502 3.65762 6.15252 3.46262 6.14752C3.26762 6.14252 3.09012 6.14002 2.93012 6.14002C2.67012 6.14002 2.50262 6.07002 2.42762 5.93002C2.35262 5.79002 2.40512 5.60502 2.58512 5.37502C2.76512 5.13502 2.97762 4.86002 3.22262 4.55002C3.46762 4.24002 3.72012 3.92002 3.98012 3.59002C4.24012 3.26002 4.49512 2.93502 4.74512 2.61502C4.99512 2.29502 5.22012 2.01002 5.42012 1.76002C5.60012 1.53002 5.77012 1.41252 5.93012 1.40752C6.09012 1.40252 6.26012 1.50502 6.44012 1.71502C6.62012 1.93502 6.83262 2.19252 7.07762 2.48752C7.32262 2.78252 7.57512 3.09002 7.83512 3.41002C8.09512 3.73002 8.35012 4.04502 8.60012 4.35502C8.85012 4.66502 9.07512 4.94002 9.27512 5.18002C9.49512 5.44002 9.58012 5.65752 9.53012 5.83252C9.48012 6.00752 9.32012 6.09502 9.05012 6.09502C8.97012 6.09502 8.87262 6.09752 8.75762 6.10252C8.64262 6.10752 8.52012 6.11252 8.39012 6.11752C8.26012 6.12252 8.13512 6.12752 8.01512 6.13252C7.89512 6.13752 7.79012 6.14002 7.70012 6.14002C7.51012 6.14002 7.39262 6.19752 7.34762 6.31252C7.30262 6.42752 7.28012 6.58502 7.28012 6.78502C7.29012 7.23502 7.29512 7.74002 7.29512 8.30002V9.86002C7.29512 10.09 7.34762 10.32 7.45262 10.55C7.55762 10.78 7.69762 10.99 7.87262 11.18C8.04762 11.37 8.25012 11.525 8.48012 11.645C8.71012 11.765 8.95512 11.825 9.21512 11.825H10.2651C10.6651 11.825 11.0526 11.8225 11.4276 11.8175C11.8026 11.8125 12.1301 11.81 12.4101 11.81H12.9351C13.1551 11.81 13.3376 11.8775 13.4826 12.0125C13.6276 12.1475 13.7376 12.3175 13.8126 12.5225C13.8876 12.7275 13.9251 12.95 13.9251 13.19C13.9251 13.43 13.8901 13.6525 13.8201 13.8575C13.7501 14.0625 13.6476 14.2325 13.5126 14.3675C13.3776 14.5025 13.2101 14.57 13.0101 14.57H12.6051H11.9001C11.6401 14.57 11.3626 14.5725 11.0676 14.5775C10.7726 14.5825 10.4901 14.585 10.2201 14.585H9.53012H9.11012Z" fill="#0E95B3"/>
</svg>
