<svg width="18" height="18" viewBox="0 0 18 18" fill="none" xmlns="http://www.w3.org/2000/svg">
<path d="M4.15655 7.83612C4.35744 7.43314 4.9335 5.65944 2.48741 5.6212C1.89361 5.61826 1.70454 4.50932 2.48741 4.51226C2.95713 4.49461 5.45049 4.50638 6.10337 4.51226C7.32051 4.5152 7.39732 4.3799 6.10337 5.6212C5.26733 6.31244 4.90102 9.17743 5.82569 11.4394C6.82717 13.4043 9.16394 13.1014 9.16394 13.1014V14.7633C9.16394 14.7633 1.87294 15.0957 4.15655 7.83612ZM15.5126 5.6212C13.0665 5.66238 13.6426 7.43314 13.8434 7.83612C16.1271 15.0957 8.83602 14.7603 8.83602 14.7603V13.0984C8.83602 13.0984 11.1728 13.4014 12.1743 11.4365C13.099 9.17449 12.7297 6.3095 11.8966 5.61826C10.6026 4.37696 10.6795 4.51226 11.8966 4.50932C12.5495 4.50344 15.0429 4.49167 15.5126 4.50932C16.2955 4.50932 16.1064 5.61826 15.5126 5.6212ZM9.6189 11.157H8.15066C7.16986 11.157 6.37813 10.3658 6.37813 9.39216V9.04507C6.37813 8.07144 7.17282 7.28019 8.15066 7.28019H9.6189C10.5967 7.28019 11.3914 8.07144 11.3914 9.04507V9.39216C11.3914 10.3658 10.5967 11.157 9.6189 11.157Z" fill="#111111"/>
</svg>
