<svg width="18" height="18" viewBox="0 0 18 18" fill="none" xmlns="http://www.w3.org/2000/svg">
<path d="M11.7025 11.1596C10.8324 12.3091 11.7025 12.8219 11.7025 12.8219C11.7025 12.8219 11.7753 13.1262 13.3533 13.8193C14.9313 14.5096 13.3533 14.4843 13.3533 14.4843H8.40385C8.40385 14.4843 5.94172 11.9203 5.10236 11.1596C4.50921 10.4524 5.76265 9.49723 5.76265 9.49723L11.3724 3.51562L14.3438 5.8429V8.17018C14.341 8.17018 12.5727 10.01 11.7025 11.1596ZM8.40105 4.8455C8.40105 4.8455 5.32338 4.89621 3.78175 4.8455C2.88643 4.83705 2.85006 3.51844 3.78175 3.51562C5.53882 3.55225 10.0518 3.51562 10.0518 3.51562L8.40105 4.8455ZM6.42015 7.17278C6.42015 7.17278 5.32338 7.22349 3.77895 7.17278C2.88363 7.16432 2.84725 5.84572 3.77895 5.8429C5.53602 5.87953 8.06811 5.8429 8.06811 5.8429L6.42015 7.17278ZM4.40189 9.62402H3.77895C2.88363 9.61557 2.84725 8.29697 3.77895 8.29415C5.53602 8.33078 5.75985 8.29415 5.75985 8.29415L4.40189 9.62402Z" fill="#111111"/>
</svg>
