<svg width="18" height="18" viewBox="0 0 18 18" fill="none" xmlns="http://www.w3.org/2000/svg">
<path d="M7.32153 12.8305C7.32153 12.8305 6.98777 11.5634 8.35388 10.7722C8.94784 10.3836 8.80926 8.69416 8.09651 8.2014C7.78821 7.9874 7.83913 7.68611 7.83913 7.68611H9.13169V12.8305H7.32153ZM9.87274 8.2014C9.15999 8.69698 9.02139 10.3864 9.61535 10.7722C10.9815 11.5634 10.6477 12.8305 10.6477 12.8305H8.84037V7.68611H10.1329C10.1301 7.68611 10.181 7.9874 9.87274 8.2014ZM8.35388 9.48539C8.35388 9.48539 7.57608 9.49947 7.57891 9.48539C7.57042 8.77582 7.13486 8.48861 6.80394 8.19858C6.47301 7.91138 6.32877 7.65232 6.02896 7.17083C5.72915 6.68933 5.77159 5.62778 5.77159 5.62778H6.54656C6.54656 5.62778 6.51262 7.15112 7.32153 7.68611C8.13045 8.21829 8.2662 8.68853 8.35388 8.97292C8.42459 9.31645 8.35388 9.48539 8.35388 9.48539ZM8.35388 9.75289C8.2662 10.0373 8.13045 10.5047 7.32153 11.0397C6.51262 11.5719 6.54656 13.098 6.54656 13.098H5.77159C5.77159 13.098 5.72915 12.0365 6.02896 11.555C6.32877 11.0735 6.47301 10.8144 6.80394 10.5272C7.13486 10.24 7.57042 9.95 7.57891 9.24042C7.57608 9.22634 8.35388 9.24042 8.35388 9.24042C8.35388 9.23761 8.42459 9.40655 8.35388 9.75289ZM11.9403 7.17083C11.6405 7.65232 11.4962 7.91138 11.1653 8.19858C10.8344 8.48579 10.3988 8.77582 10.3903 9.48539C10.3932 9.49947 9.61535 9.48539 9.61535 9.48539C9.61535 9.48539 9.54464 9.31363 9.61535 8.97011C9.70303 8.68571 9.8388 8.21829 10.6477 7.6833C11.4566 7.15111 11.4227 5.62496 11.4227 5.62496H12.1977C12.1977 5.62778 12.2401 6.68933 11.9403 7.17083ZM12.1977 13.0952H11.4227C11.4227 13.0952 11.4566 11.5719 10.6477 11.0369C9.8388 10.5047 9.70303 10.0345 9.61535 9.75008C9.54464 9.40655 9.61535 9.23479 9.61535 9.23479C9.61535 9.23479 10.3932 9.22071 10.3903 9.23479C10.3988 9.94437 10.8344 10.2316 11.1653 10.5216C11.4962 10.8088 11.6405 11.0679 11.9403 11.5494C12.2401 12.0337 12.1977 13.0952 12.1977 13.0952ZM13.0037 5.11531C13.0037 5.3997 12.7718 5.6306 12.4862 5.6306H5.51136C5.2257 5.6306 4.99378 5.3997 4.99378 5.11531V4.70984C4.97115 4.70702 12.9981 4.70984 13.0037 4.70984C13.0094 4.70702 13.0037 5.11531 13.0037 5.11531ZM13.7787 4.34378C13.7787 4.62818 13.5468 4.85907 13.2611 4.85907H4.73639C4.45072 4.85907 4.21879 4.62818 4.21879 4.34378V3.93831C4.19616 3.9355 13.7731 3.94113 13.7787 3.93831C13.7844 3.9355 13.7787 4.34378 13.7787 4.34378ZM13.0037 13.8527C12.9981 13.8527 4.97398 13.8555 4.99378 13.8527V13.4472C4.99378 13.1628 5.2257 12.9319 5.51136 12.9319H12.4862C12.7718 12.9319 13.0037 13.1628 13.0037 13.4472C13.0037 13.4472 13.0094 13.8555 13.0037 13.8527ZM13.7787 14.6242C13.7731 14.6214 4.19899 14.627 4.21879 14.6242V14.2187C4.21879 13.9343 4.45072 13.7034 4.73639 13.7034H13.2611C13.5468 13.7034 13.7787 13.9343 13.7787 14.2187C13.7787 14.2187 13.7844 14.627 13.7787 14.6242Z" fill="#111111"/>
</svg>
