<svg width="32" height="32" viewBox="0 0 32 32" fill="none" xmlns="http://www.w3.org/2000/svg">
<path fill-rule="evenodd" clip-rule="evenodd" d="M19.781 11.6593C22.4118 11.6593 24.5444 10.4834 24.5444 9.03278C24.5444 7.58219 22.4118 6.40625 19.781 6.40625C17.1502 6.40625 15.0176 7.58219 15.0176 9.03278C15.0176 10.4834 17.1502 11.6593 19.781 11.6593ZM19.7811 13.1854C21.4999 13.1854 22.9816 12.5602 23.6583 11.6593C24.2162 12.0895 24.5444 12.6163 24.5444 13.1854C24.5444 14.636 22.4117 15.8119 19.7811 15.8119C19.2583 15.8119 18.7552 15.7655 18.2846 15.6797C18.3946 15.3675 18.4573 15.0287 18.4573 14.6631C18.4573 13.9938 18.2471 13.414 17.9212 12.9237C18.4834 13.0914 19.1144 13.1854 19.7811 13.1854ZM18.2846 23.985C18.7552 24.0707 19.2583 24.1172 19.781 24.1172C22.4118 24.1172 24.5444 22.9412 24.5444 21.4906C24.5444 20.9215 24.2162 20.3947 23.6583 19.9646C22.9817 20.8655 21.5 21.4906 19.781 21.4906C19.1135 21.4906 18.4817 21.3964 17.919 21.2283C18.2432 21.718 18.4573 22.3007 18.4573 22.9683C18.4573 23.3339 18.3946 23.6728 18.2846 23.985ZM18.2846 19.8323C18.7552 19.9181 19.2583 19.9646 19.781 19.9646C22.4118 19.9646 24.5444 18.7886 24.5444 17.338C24.5444 16.7689 24.2162 16.2421 23.6583 15.8119C22.9817 16.7129 21.5 17.338 19.781 17.338C19.1135 17.338 18.4817 17.2438 17.919 17.0757C18.2432 17.5654 18.4573 18.1481 18.4573 18.8157C18.4573 19.1813 18.3946 19.5202 18.2846 19.8323Z" fill="white"/>
<path d="M16.9272 14.6627C16.9272 16.1133 14.7946 17.2892 12.1638 17.2892C9.53305 17.2892 7.40039 16.1133 7.40039 14.6627C7.40039 13.2121 9.53305 12.0362 12.1638 12.0362C14.7946 12.0362 16.9272 13.2121 16.9272 14.6627Z" fill="white"/>
<path d="M16.0411 17.2892C15.3644 18.1902 13.8827 18.8153 12.1639 18.8153C10.4449 18.8153 8.96323 18.1902 8.28651 17.2892C7.7286 17.7194 7.40039 18.2462 7.40039 18.8153C7.40039 20.2659 9.53311 21.4419 12.1639 21.4419C14.7945 21.4419 16.9272 20.2659 16.9272 18.8153C16.9272 18.2462 16.599 17.7194 16.0411 17.2892Z" fill="white"/>
<path d="M16.0412 21.4419C15.3646 22.3428 13.8828 22.9679 12.1638 22.9679C10.4448 22.9679 8.96308 22.3428 8.28647 21.4419C7.72865 21.872 7.40039 22.3988 7.40039 22.9679C7.40039 24.4185 9.53305 25.5945 12.1638 25.5945C14.7946 25.5945 16.9272 24.4185 16.9272 22.9679C16.9272 22.3988 16.599 21.872 16.0412 21.4419Z" fill="white"/>
</svg>
