<svg width="24" height="24" viewBox="0 0 24 24" fill="none" xmlns="http://www.w3.org/2000/svg">
<path d="M12 17.125C9.1702 17.125 6.875 14.8298 6.875 12C6.875 9.1702 9.1702 6.875 12 6.875C14.8298 6.875 17.125 9.1702 17.125 12C17.125 14.8324 14.8298 17.125 12 17.125ZM12 8.02131C9.80504 8.02131 8.02389 9.80247 8.02389 11.9974C8.02389 14.1924 9.80504 15.9735 12 15.9735C14.195 15.9735 15.9761 14.1924 15.9761 11.9974C15.9761 9.80247 14.1975 8.02131 12 8.02131ZM12 14.5625C10.5838 14.5625 9.43751 13.4162 9.43751 12C9.43751 10.5838 10.5838 9.4375 12 9.4375C13.4162 9.4375 14.5625 10.5838 14.5625 12C14.5625 13.4162 13.4162 14.5625 12 14.5625Z" fill="#E25C36"/>
</svg>
