<svg width="24" height="24" viewBox="0 0 24 24" fill="none" xmlns="http://www.w3.org/2000/svg">
<g clip-path="url(#clip0_150_10632)">
<path d="M22.6134 1.61085C22.1816 1.92976 19.8188 3.46532 19.1687 3.83547C18.5186 4.20563 19.7423 4.52268 20.1443 4.54028C20.61 5.91284 18.7701 10.8178 17.8555 12.5737C20.8541 10.6183 22.3265 5.66772 22.1667 4.20563C22.9759 3.2486 23.0452 1.29164 22.6134 1.61085Z" fill="#BEBCBD"/>
<path d="M1.76243 1.61085C2.19426 1.92976 4.55707 3.46532 5.20715 3.83547C5.85723 4.20563 4.63355 4.52268 4.23156 4.54028C3.76584 5.91284 5.60572 10.8178 6.52037 12.5737C3.5221 10.6183 2.0497 5.66772 2.20918 4.20563C1.39992 3.2486 1.33059 1.29164 1.76243 1.61085Z" fill="#BEBCBD"/>
<path d="M17.8432 8.10443V2.78027H12.1871H6.53125V8.10412C6.53125 12.1557 9.09956 15.8286 11.3545 15.8286V16.5497C10.9761 16.5497 10.3124 16.7566 10.3124 17.5845C10.3124 18.4125 10.9761 18.6194 11.3545 18.6194V19.6199L7.6968 22.8179C7.52456 22.9683 7.63182 23.2505 7.86126 23.2505H12.1874H16.5135C16.7429 23.2505 16.8499 22.9686 16.6779 22.8179L13.0199 19.6202V18.6197C13.3983 18.6197 14.0621 18.4128 14.0621 17.5849C14.0621 16.7569 13.3986 16.55 13.0199 16.55V15.8289C15.2749 15.8289 17.8432 12.1557 17.8432 8.10443Z" fill="#BEBCBD"/>
<path d="M19.1431 0.75H12.1875H5.23211C5.0947 0.75 4.9834 0.860521 4.9834 0.996975V1.52272C4.9834 1.65918 5.0947 1.7697 5.23211 1.7697H12.1875H19.1428C19.2802 1.7697 19.3915 1.65918 19.3915 1.52272V0.996975C19.3919 0.860521 19.2802 0.75 19.1431 0.75Z" fill="#BEBCBD"/>
</g>
<defs>
<clipPath id="clip0_150_10632">
<rect width="21.375" height="22.5" fill="white" transform="translate(1.5 0.75)"/>
</clipPath>
</defs>
</svg>
