<svg width="18" height="18" viewBox="0 0 18 18" fill="none" xmlns="http://www.w3.org/2000/svg">
<path d="M12.1368 14.25H5.86321C4.69566 14.25 3.75 13.3043 3.75 12.1368V5.86321C3.75 4.69566 4.69566 3.75 5.86321 3.75H12.1368C13.3043 3.75 14.25 4.69566 14.25 5.86321V12.1368C14.25 13.3043 13.3043 14.25 12.1368 14.25ZM7.8602 10.713C7.8602 11.2809 8.31983 11.7406 8.88776 11.7406C9.45568 11.7406 9.91531 11.2809 9.91531 10.713C9.91531 10.1451 9.45568 9.68547 8.88776 9.68547C8.84021 9.68547 8.7953 9.6934 8.75039 9.69868L7.69643 8.18774L6.76133 8.84019L7.89719 10.4647C7.87342 10.544 7.8602 10.6258 7.8602 10.713ZM9.00132 6.03226C7.66208 6.03226 6.48398 6.71113 5.78663 7.74132C5.73908 7.84698 6.63718 8.58132 6.69529 8.51C7.16548 7.69641 8.04247 7.15226 9.04888 7.15226C10.05 7.15226 10.9244 7.69377 11.3972 8.49943C11.4606 8.51528 12.2662 7.81528 12.2161 7.73868C11.5161 6.70849 10.3379 6.03226 9.00132 6.03226Z" fill="#111111"/>
</svg>
