<svg width="18" height="18" viewBox="0 0 18 18" fill="none" xmlns="http://www.w3.org/2000/svg">
<path d="M11.1718 11.5605C11.0592 11.8945 10.7495 12.1369 10.3795 12.1369H9.67365C9.45446 12.1735 9.22924 12.198 9 12.198C8.77076 12.198 8.54554 12.1735 8.32635 12.1369H7.68086C7.32895 12.1369 7.02731 11.9169 6.90264 11.6053C5.7162 10.8823 4.92188 9.57076 4.92188 8.06774C4.92188 5.78674 6.74778 3.9375 9 3.9375C11.2522 3.9375 13.0781 5.78674 13.0781 8.06774C13.0781 9.54021 12.316 10.8294 11.1718 11.5605ZM9 4.6666C7.14594 4.6666 5.6418 6.18999 5.6418 8.06774C5.6418 9.29989 6.28929 10.3732 7.25653 10.9719C6.73973 10.4445 6.42203 9.71943 6.42203 8.91904C6.42203 7.4425 7.50591 6.22665 8.91153 6.03317C8.81903 6.20628 9.11663 6.45475 9.27147 6.44253C10.1422 6.44253 10.846 7.15738 10.846 8.03719C10.838 8.26733 11.3085 8.58504 11.391 8.09625C11.2623 8.05145 11.1416 7.91092 11.1456 7.79484C11.1456 6.91298 10.4398 6.20017 9.57109 6.20017C9.3519 6.21647 8.84113 5.70935 9.57109 5.64011C10.5363 5.64011 11.3507 6.29182 11.6122 7.18385C11.9681 7.66857 12.1813 8.26937 12.1813 8.91904C12.1813 9.01273 12.1752 9.10641 12.1672 9.19806C12.2898 8.84369 12.3602 8.46488 12.3602 8.06774C12.3582 6.18999 10.8561 4.6666 9 4.6666ZM7.50188 12.4424H10.6208C10.7857 12.4424 10.9204 12.5788 10.9204 12.7458C10.9204 12.9128 10.7857 13.0493 10.6208 13.0493H7.50188C7.33699 13.0493 7.20226 12.9128 7.20226 12.7458C7.20226 12.5768 7.33498 12.4424 7.50188 12.4424ZM7.61851 13.2835H10.5021C10.6429 13.3446 10.6429 13.4424 10.5021 13.5035L9.31371 14.0167C9.17295 14.0778 8.94571 14.0778 8.80495 14.0167L7.61649 13.5035C7.47774 13.4424 7.47774 13.3426 7.61851 13.2835Z" fill="#111111"/>
</svg>
