<svg width="18" height="18" viewBox="0 0 18 18" fill="none" xmlns="http://www.w3.org/2000/svg">
<path d="M10.4007 13.7812H7.35552C6.80463 13.7812 6.93827 13.1775 6.93827 13.1775L8.13146 10.767H9.83337L11.0266 13.149C11.2375 13.7528 10.4007 13.7812 10.4007 13.7812ZM8.99415 11.2004C8.16898 11.2004 7.50086 10.5255 7.50086 9.69206C7.50086 8.8586 8.16898 8.18378 8.99415 8.18378C9.81931 8.18378 10.4874 8.8586 10.4874 9.69206C10.4874 10.5232 9.81931 11.2004 8.99415 11.2004ZM6.3733 7.76231H5.72161C5.40982 7.76231 5.15899 7.50895 5.15899 7.19404V5.34952C5.15899 5.0346 5.41217 4.78125 5.72161 4.78125H6.3733C6.68508 4.78125 6.93592 5.03697 6.93592 5.34952V7.19404C6.93592 7.50895 6.68274 7.76231 6.3733 7.76231ZM12.5691 7.76231H11.9244C11.615 7.76231 11.3641 7.50895 11.3641 7.1964V5.34715C11.3641 5.0346 11.615 4.78125 11.9244 4.78125H12.5691C12.8785 4.78125 13.1293 5.0346 13.1293 5.34715V7.1964C13.1293 7.50895 12.8785 7.76231 12.5691 7.76231ZM14.3436 8.95094H3.65637C3.34693 8.95094 3.09375 8.69522 3.09375 8.38267V7.72442C3.09375 7.41187 3.34693 7.15615 3.65637 7.15615H14.3436C14.6554 7.15615 14.9062 7.41187 14.9062 7.72442V8.38267C14.9062 8.69759 14.6531 8.95094 14.3436 8.95094Z" fill="#111111"/>
</svg>
