<svg width="24" height="24" viewBox="0 0 24 24" fill="none" xmlns="http://www.w3.org/2000/svg">
<path d="M14.8026 7.65342C22.7677 10.1658 23.1859 16.4467 22.7646 18.5822C17.7058 13.317 16.0733 13.1713 11.3849 12.3392C3.45122 10.931 0.816239 4.17799 1.15325 1.875C5.70604 5.76915 12.4131 6.89971 14.8026 7.65342Z" fill="#BEBCBD"/>
<path d="M13.414 14.4184C18.5679 15.0276 19.56 18.8107 19.5536 20.1623C18.6904 19.6909 15.7278 18.554 10.7835 17.7779C5.83927 17.0018 4.47388 13.9198 4.40922 12.4758C7.64359 14.3235 11.8679 14.2356 13.414 14.4184Z" fill="#BEBCBD"/>
<path d="M11.2404 19.4523C14.9831 19.0345 16.3143 21.544 16.5349 22.5C15.8465 22.309 14.1107 21.2299 10.4883 21.4953C8.49198 21.6041 7.98783 20.8816 7.41967 20.0472C9.81049 19.6578 10.4904 19.5361 11.2404 19.4523Z" fill="#BEBCBD"/>
</svg>
