<svg width="138" height="48" viewBox="0 0 138 48" fill="none" xmlns="http://www.w3.org/2000/svg">
<path d="M88.9305 37.6271L86.6979 23.5174L86.5156 22.4543H86.7131H89.1583H89.371L90.6316 29.4256M90.6316 29.4256L92.3022 38.675H88.4749L88.9305 37.6119M93.9122 30.3216L92.6667 37.1107L91.2239 29.3192L92.4693 22.4543H95.3246L96.6156 29.5623L98.2711 38.6902H95.6284H95.4765H95.4006H94.4134L94.869 37.6271L93.9122 30.3216ZM101.309 22.4543L101.111 23.5174L98.6508 37.1107L97.1776 29.4407L98.2711 23.5023L98.4382 22.4543H98.6508H101.081H101.309Z" fill="#E8CFA7"/>
<path d="M88.9305 37.6271L86.6979 23.5174L86.5156 22.4543H86.7131H89.1583H89.371L90.6316 29.4256M90.6316 29.4256L92.3022 38.675H88.4749L88.9305 37.6119M93.9122 30.3216L92.6667 37.1107L91.2239 29.3192L92.4693 22.4543H95.3246L96.6156 29.5623L98.2711 38.6902H95.6284H95.4765H95.4006H94.4134L94.869 37.6271L93.9122 30.3216ZM101.309 22.4543L101.111 23.5174L98.6508 37.1107L97.1776 29.4407L98.2711 23.5023L98.4382 22.4543H98.6508H101.081H101.309Z" fill="url(#paint0_linear_150_10598)"/>
<path d="M104.536 37.5881L104.278 38.7094L101.135 38.6904L101.392 37.569L104.61 23.5521L104.868 22.4308L108.011 22.4498L108.005 22.4765L104.536 37.5881ZM110.603 37.6038L110.346 38.7252L107.255 38.7184L107.507 37.6238L110.731 23.5801L110.982 22.4855L110.988 22.4588L114.079 22.4655L114.072 22.4922L113.821 23.5869L113.797 23.6937L112.417 29.701L110.603 37.6038ZM116.551 37.6485L116.3 38.7431L113.156 38.7241L113.414 37.6027L112.683 31.7292L114.068 25.6953L114.83 31.4353L116.632 23.5858L116.883 22.4911L116.889 22.4644L120.027 22.5102L119.769 23.6315L116.551 37.6485Z" fill="#E8CFA7"/>
<path d="M104.536 37.5881L104.278 38.7094L101.135 38.6904L101.392 37.569L104.61 23.5521L104.868 22.4308L108.011 22.4498L108.005 22.4765L104.536 37.5881ZM110.603 37.6038L110.346 38.7252L107.255 38.7184L107.507 37.6238L110.731 23.5801L110.982 22.4855L110.988 22.4588L114.079 22.4655L114.072 22.4922L113.821 23.5869L113.797 23.6937L112.417 29.701L110.603 37.6038ZM116.551 37.6485L116.3 38.7431L113.156 38.7241L113.414 37.6027L112.683 31.7292L114.068 25.6953L114.83 31.4353L116.632 23.5858L116.883 22.4911L116.889 22.4644L120.027 22.5102L119.769 23.6315L116.551 37.6485Z" fill="url(#paint1_linear_150_10598)"/>
<path d="M125.51 22.4543V24.3785C124.942 24.5617 124.521 25.0748 124.521 25.6796V26.9074C124.521 27.8603 124.96 28.3368 125.51 28.6666V31.9469C125.4 31.9103 125.29 31.837 125.18 31.8003C123.329 30.884 121.625 29.8395 121.625 26.9257V26.6142C121.607 24.4151 123.329 22.6192 125.51 22.4543ZM125.51 36.6199V38.5808C123.311 38.3975 121.625 36.5283 121.625 34.3109V32.7899H124.521V33.8344V35.3738C124.521 35.9785 124.924 36.4733 125.51 36.6199ZM130.055 26.7058V28.2452H127.159V27.1639V25.6429C127.159 25.0565 126.738 24.5434 126.17 24.3968V22.4543C128.369 22.6375 130.055 24.4884 130.055 26.7058ZM130.055 34.091V34.4209C130.055 36.6199 128.332 38.3975 126.17 38.5808V36.6199C126.738 36.4733 127.159 35.9419 127.159 35.3371V34.1093C127.159 33.1931 126.72 32.6799 126.17 32.3318V29.0515C126.28 29.0881 126.39 29.1614 126.5 29.1981C128.314 30.1327 130.055 31.1589 130.055 34.091Z" fill="#E8CFA7"/>
<path d="M125.51 22.4543V24.3785C124.942 24.5617 124.521 25.0748 124.521 25.6796V26.9074C124.521 27.8603 124.96 28.3368 125.51 28.6666V31.9469C125.4 31.9103 125.29 31.837 125.18 31.8003C123.329 30.884 121.625 29.8395 121.625 26.9257V26.6142C121.607 24.4151 123.329 22.6192 125.51 22.4543ZM125.51 36.6199V38.5808C123.311 38.3975 121.625 36.5283 121.625 34.3109V32.7899H124.521V33.8344V35.3738C124.521 35.9785 124.924 36.4733 125.51 36.6199ZM130.055 26.7058V28.2452H127.159V27.1639V25.6429C127.159 25.0565 126.738 24.5434 126.17 24.3968V22.4543C128.369 22.6375 130.055 24.4884 130.055 26.7058ZM130.055 34.091V34.4209C130.055 36.6199 128.332 38.3975 126.17 38.5808V36.6199C126.738 36.4733 127.159 35.9419 127.159 35.3371V34.1093C127.159 33.1931 126.72 32.6799 126.17 32.3318V29.0515C126.28 29.0881 126.39 29.1614 126.5 29.1981C128.314 30.1327 130.055 31.1589 130.055 34.091Z" fill="url(#paint2_linear_150_10598)"/>
<path d="M64.6225 37.5767V38.6709H61.623V37.5767V23.6169V22.5039H64.6225V23.6169V28.0124L66.8485 23.6169L67.3768 22.5039H70.7346L67.6786 28.5972V28.616L65.7733 32.3512L65.3205 33.2567L64.7168 34.4263L64.6225 34.6338V37.5767ZM71.0365 38.652H70.6215H68.0559H67.8672L67.4899 37.5579L66.0562 33.2567L67.9616 29.5215L70.6592 37.5579L71.0365 38.652Z" fill="#E8CFA7"/>
<path d="M64.6225 37.5767V38.6709H61.623V37.5767V23.6169V22.5039H64.6225V23.6169V28.0124L66.8485 23.6169L67.3768 22.5039H70.7346L67.6786 28.5972V28.616L65.7733 32.3512L65.3205 33.2567L64.7168 34.4263L64.6225 34.6338V37.5767ZM71.0365 38.652H70.6215H68.0559H67.8672L67.4899 37.5579L66.0562 33.2567L67.9616 29.5215L70.6592 37.5579L71.0365 38.652Z" fill="url(#paint3_linear_150_10598)"/>
<path d="M44.9804 36.9346V38.972C42.7355 38.7834 41 36.8592 41 34.6143V23.6728V22.541H43.9806V23.654V35.6518C43.9995 36.2744 44.4145 36.8026 44.9804 36.9346ZM49.6966 22.541V23.654V34.652C49.6966 36.9346 47.9233 38.8022 45.6973 38.972V36.9346C46.2821 36.8026 46.6971 36.2367 46.6971 35.6141V23.654V22.541H49.6966Z" fill="#E8CFA7"/>
<path d="M44.9804 36.9346V38.972C42.7355 38.7834 41 36.8592 41 34.6143V23.6728V22.541H43.9806V23.654V35.6518C43.9995 36.2744 44.4145 36.8026 44.9804 36.9346ZM49.6966 22.541V23.654V34.652C49.6966 36.9346 47.9233 38.8022 45.6973 38.972V36.9346C46.2821 36.8026 46.6971 36.2367 46.6971 35.6141V23.654V22.541H49.6966Z" fill="url(#paint4_linear_150_10598)"/>
<path d="M55.1679 38.9536C52.9608 38.765 51.1875 36.9163 51.1875 34.6337V25.6164C51.1875 24.8241 51.5459 24.0506 52.1873 23.5413C53.1871 22.749 54.2247 22.3339 55.1679 22.2773V24.2959C54.602 24.4468 54.1681 24.975 54.1681 25.6164V35.6146C54.1681 36.1994 54.602 36.7654 55.1679 36.9351V38.9536ZM59.8841 26.5973V28.2952H56.8657V27.1821V25.6164C56.8657 25.0127 56.4319 24.4656 55.8659 24.277V22.2773C58.1108 22.466 59.8841 24.3147 59.8841 26.5973ZM56.8657 32.9358H59.8841V35.6146C59.8841 36.4069 59.5257 37.1804 58.8843 37.6709C57.8844 38.482 56.8469 38.8971 55.8848 38.9536V36.9163C56.4696 36.7842 56.8846 36.2371 56.8846 35.6335V34.0111V32.9358H56.8657Z" fill="#E8CFA7"/>
<path d="M55.1679 38.9536C52.9608 38.765 51.1875 36.9163 51.1875 34.6337V25.6164C51.1875 24.8241 51.5459 24.0506 52.1873 23.5413C53.1871 22.749 54.2247 22.3339 55.1679 22.2773V24.2959C54.602 24.4468 54.1681 24.975 54.1681 25.6164V35.6146C54.1681 36.1994 54.602 36.7654 55.1679 36.9351V38.9536ZM59.8841 26.5973V28.2952H56.8657V27.1821V25.6164C56.8657 25.0127 56.4319 24.4656 55.8659 24.277V22.2773C58.1108 22.466 59.8841 24.3147 59.8841 26.5973ZM56.8657 32.9358H59.8841V35.6146C59.8841 36.4069 59.5257 37.1804 58.8843 37.6709C57.8844 38.482 56.8469 38.8971 55.8848 38.9536V36.9163C56.4696 36.7842 56.8846 36.2371 56.8846 35.6335V34.0111V32.9358H56.8657Z" fill="url(#paint5_linear_150_10598)"/>
<path d="M75.1606 32.3896L71.8027 22.4668H72.0291H74.9531H74.972L75.3304 23.5798L76.2736 26.4284L78.1224 32.4273V37.5773V38.6904H75.1418V37.5773V32.3896H75.1606ZM81.4991 22.4668L81.1218 23.5798L78.5374 31.2954L77.0282 26.3906L77.9715 23.5798L78.3487 22.4668H81.2728H81.4991Z" fill="#E8CFA7"/>
<path d="M75.1606 32.3896L71.8027 22.4668H72.0291H74.9531H74.972L75.3304 23.5798L76.2736 26.4284L78.1224 32.4273V37.5773V38.6904H75.1418V37.5773V32.3896H75.1606ZM81.4991 22.4668L81.1218 23.5798L78.5374 31.2954L77.0282 26.3906L77.9715 23.5798L78.3487 22.4668H81.2728H81.4991Z" fill="url(#paint6_linear_150_10598)"/>
<path d="M31.3835 33.3965C31.3835 33.3965 23.5838 33.7892 20.6923 33.155C19.237 32.8358 17.93 32.4595 16.893 32.0939C16.4917 31.9525 16.0983 31.8017 15.7379 31.6443L7.75 39.833H37.217C37.217 39.833 33.6616 35.9101 31.3835 33.3965Z" fill="url(#paint7_linear_150_10598)"/>
<path d="M24.0186 21.5503C25.3987 22.9877 26.4631 23.6943 28.3444 24.6279L39.3113 9.43158H35.942L24.0186 21.5503Z" fill="url(#paint8_linear_150_10598)"/>
<path d="M19.8059 24.1482C19.9775 24.3683 21.6423 27.3317 36.0008 29.8569C22.9133 30.1795 16.1211 26.7852 14.9344 25.7882C12.324 24.2325 11.1822 21.8246 10.9376 20.8152L16.4681 22.5924C16.6114 22.28 16.2323 21.9915 16.0248 21.8863L11.7151 20.105C9.45656 18.8744 8.63828 15.8854 8.51146 14.5447L15.5382 17.914C15.5682 17.7036 15.5262 17.4094 15.209 17.1797C14.8919 16.9501 10.7288 14.551 10.7288 14.551C8.11396 13.1037 7.41774 9.37231 7.39648 7.6875L21.0452 14.9519C23.0712 16.0173 21.7783 18.1271 21.1721 18.7578C20.6056 19.3472 19.4731 20.3598 19.3293 21.4853C19.1221 23.108 19.6343 23.9281 19.8059 24.1482Z" fill="url(#paint9_linear_150_10598)"/>
<defs>
<linearGradient id="paint0_linear_150_10598" x1="86.6243" y1="22.7704" x2="102.049" y2="37.419" gradientUnits="userSpaceOnUse">
<stop stop-color="#EED7B6"/>
<stop offset="1" stop-color="#CBA763"/>
</linearGradient>
<linearGradient id="paint1_linear_150_10598" x1="105.628" y1="19.604" x2="120.385" y2="37.5463" gradientUnits="userSpaceOnUse">
<stop stop-color="#EED7B6"/>
<stop offset="1" stop-color="#CBA763"/>
</linearGradient>
<linearGradient id="paint2_linear_150_10598" x1="121.687" y1="22.7683" x2="134.578" y2="29.7918" gradientUnits="userSpaceOnUse">
<stop stop-color="#EED7B6"/>
<stop offset="1" stop-color="#CBA763"/>
</linearGradient>
<linearGradient id="paint3_linear_150_10598" x1="61.6922" y1="22.8187" x2="75.335" y2="31.0985" gradientUnits="userSpaceOnUse">
<stop stop-color="#EED7B6"/>
<stop offset="1" stop-color="#CBA763"/>
</linearGradient>
<linearGradient id="paint4_linear_150_10598" x1="41.0639" y1="22.8609" x2="54.2861" y2="30.1552" gradientUnits="userSpaceOnUse">
<stop stop-color="#EED7B6"/>
<stop offset="1" stop-color="#CBA763"/>
</linearGradient>
<linearGradient id="paint5_linear_150_10598" x1="51.2514" y1="22.6021" x2="64.5642" y2="29.8384" gradientUnits="userSpaceOnUse">
<stop stop-color="#EED7B6"/>
<stop offset="1" stop-color="#CBA763"/>
</linearGradient>
<linearGradient id="paint6_linear_150_10598" x1="71.874" y1="22.7827" x2="85.7269" y2="31.4125" gradientUnits="userSpaceOnUse">
<stop stop-color="#EED7B6"/>
<stop offset="1" stop-color="#CBA763"/>
</linearGradient>
<linearGradient id="paint7_linear_150_10598" x1="7.96643" y1="31.8037" x2="11.8446" y2="46.3497" gradientUnits="userSpaceOnUse">
<stop stop-color="#EED7B6"/>
<stop offset="1" stop-color="#CBA763"/>
</linearGradient>
<linearGradient id="paint8_linear_150_10598" x1="24.1309" y1="9.7275" x2="38.5707" y2="24.8738" gradientUnits="userSpaceOnUse">
<stop stop-color="#EED7B6"/>
<stop offset="1" stop-color="#CBA763"/>
</linearGradient>
<linearGradient id="paint9_linear_150_10598" x1="7.59794" y1="8.10962" x2="25.7122" y2="36.0172" gradientUnits="userSpaceOnUse">
<stop stop-color="#EED7B6"/>
<stop offset="1" stop-color="#CBA763"/>
</linearGradient>
</defs>
</svg>
