<svg width="25" height="24" viewBox="0 0 25 24" fill="none" xmlns="http://www.w3.org/2000/svg">
<path fill-rule="evenodd" clip-rule="evenodd" d="M9.73909 17.5068C10.5342 17.6832 11.4472 17.7714 12.4779 17.7714C13.5086 17.7714 14.4216 17.6758 15.2167 17.4848C16.0119 17.279 16.6819 16.963 17.2267 16.5367C17.7862 16.1105 18.2059 15.5666 18.4856 14.9052C18.7801 14.2291 18.9274 13.4207 18.9274 12.48V2.25H15.5922V12.1052C15.5922 12.5314 15.548 12.9209 15.4597 13.2737C15.3713 13.6118 15.2094 13.9057 14.9738 14.1556C14.7529 14.3908 14.4437 14.5745 14.0461 14.7068C13.6485 14.8391 13.1332 14.9052 12.5 14.9052C11.8963 14.9052 11.3956 14.8464 10.9981 14.7288C10.6005 14.6112 10.2839 14.4349 10.0483 14.1997C9.81271 13.9645 9.65074 13.6706 9.56239 13.3178C9.47404 12.965 9.42986 12.5608 9.42986 12.1052V2.25H6.0726V12.48C6.0726 13.4942 6.21248 14.3393 6.49225 15.0154C6.77203 15.6916 7.18432 16.2354 7.72914 16.647C8.27396 17.0438 8.94394 17.3304 9.73909 17.5068ZM8.59739 6.81471C8.59739 7.28376 8.21646 7.664 7.74656 7.664C7.27666 7.664 6.89572 7.28376 6.89572 6.81471C6.89572 6.34565 7.27666 5.96541 7.74656 5.96541C8.21646 5.96541 8.59739 6.34565 8.59739 6.81471ZM17.2534 7.664C17.7233 7.664 18.1043 7.28376 18.1043 6.81471C18.1043 6.34565 17.7233 5.96541 17.2534 5.96541C16.7835 5.96541 16.4026 6.34565 16.4026 6.81471C16.4026 7.28376 16.7835 7.664 17.2534 7.664ZM17.2534 11.7093C17.7233 11.7093 18.1043 11.3291 18.1043 10.86C18.1043 10.391 17.7233 10.0107 17.2534 10.0107C16.7835 10.0107 16.4026 10.391 16.4026 10.86C16.4026 11.3291 16.7835 11.7093 17.2534 11.7093ZM7.74656 11.7093C8.21646 11.7093 8.59739 11.3291 8.59739 10.86C8.59739 10.391 8.21646 10.0107 7.74656 10.0107C7.27666 10.0107 6.89572 10.391 6.89572 10.86C6.89572 11.3291 7.27666 11.7093 7.74656 11.7093Z" fill="#BEBCBD"/>
<path d="M7.17923 17.3851L7.17284 17.3803C6.48767 16.8627 5.97814 16.1827 5.64044 15.3666C5.3143 14.5785 5.16347 13.6502 5.15176 12.6125H1.25V19.6659C1.25 20.8169 2.18477 21.75 3.33786 21.75H21.6621C22.8152 21.75 23.75 20.8169 23.75 19.6659V12.6125H19.8472C19.8339 13.5919 19.672 14.4846 19.3319 15.2674C18.9919 16.0692 18.476 16.7401 17.7897 17.2642C17.1293 17.7797 16.3405 18.1438 15.4474 18.3749L15.4397 18.377L15.4319 18.3788C14.5506 18.5906 13.5629 18.691 12.4774 18.691C11.3963 18.691 10.4142 18.5987 9.5388 18.4045C8.645 18.2063 7.85198 17.8752 7.18571 17.3898L7.17923 17.3851Z" fill="#BEBCBD"/>
<path d="M19.848 11.3876H23.75V7.5166C23.75 6.36559 22.8152 5.43251 21.6621 5.43251H19.848V11.3876Z" fill="#BEBCBD"/>
<path d="M1.25 11.3876H5.15101V5.43251H3.33786C2.18477 5.43251 1.25 6.36559 1.25 7.5166V11.3876Z" fill="#BEBCBD"/>
<path d="M10.3505 5.43251H14.6706V11.3876H10.3505V5.43251Z" fill="#BEBCBD"/>
<path d="M10.3742 12.6125C10.3922 12.7924 10.4199 12.9528 10.4555 13.095C10.5073 13.3016 10.5925 13.4432 10.6992 13.5497C10.8028 13.6531 10.9734 13.7629 11.2593 13.8474C11.5428 13.9313 11.9479 13.9859 12.4995 13.9859C13.0789 13.9859 13.4857 13.9241 13.7544 13.8347C14.0487 13.7367 14.2117 13.6223 14.3013 13.5269L14.3019 13.5262L14.3025 13.5256C14.4295 13.391 14.5165 13.2359 14.5668 13.046C14.6 12.9127 14.6259 12.7684 14.6435 12.6125H10.3742Z" fill="#BEBCBD"/>
</svg>
