<svg width="28" height="28" viewBox="0 0 28 28" fill="none" xmlns="http://www.w3.org/2000/svg">
<circle cx="14" cy="14" r="12.6" stroke="#B19F81" stroke-width="1.2" stroke-linejoin="round"/>
<path d="M16.102 10.7401C22.0758 12.6243 22.3894 17.335 22.0734 18.9366C18.2793 14.9877 17.0549 14.8785 13.5387 14.2544C7.58842 13.1982 5.61218 8.13349 5.86494 6.40625C9.27953 9.32686 14.3098 10.1748 16.102 10.7401Z" fill="#B19F81"/>
<path d="M15.0605 15.8138C18.9259 16.2707 19.67 19.108 19.6652 20.1217C19.0178 19.7682 16.7958 18.9155 13.0876 18.3334C9.37945 17.7513 8.35541 15.4398 8.30692 14.3568C10.7327 15.7426 13.9009 15.6767 15.0605 15.8138Z" fill="#B19F81"/>
<path d="M13.4303 19.5893C16.2373 19.2759 17.2357 21.158 17.4012 21.875C16.8849 21.7318 15.583 20.9224 12.8662 21.1215C11.369 21.203 10.9909 20.6612 10.5648 20.0354C12.3579 19.7434 12.8678 19.6521 13.4303 19.5893Z" fill="#B19F81"/>
</svg>
