<svg width="17" height="16" viewBox="0 0 17 16" fill="none" xmlns="http://www.w3.org/2000/svg">
<path d="M14.0466 3.43998H13.4133V3.11998C13.4133 2.13331 12.6133 1.33331 11.6266 1.33331H5.37325C4.8994 1.33331 4.44495 1.52155 4.10989 1.85662C3.77482 2.19168 3.58659 2.64613 3.58659 3.11998V3.43998H2.95325C2.33325 3.43998 1.83325 3.93998 1.83325 4.55665V6.05331C1.83325 7.94665 3.02992 9.55665 4.70658 10.1766C5.39658 10.99 6.35325 11.57 7.44658 11.7733V12.56H5.27992C5.00056 12.56 4.73264 12.671 4.5351 12.8685C4.33756 13.066 4.22659 13.334 4.22659 13.6133C4.22659 13.8927 4.33756 14.1606 4.5351 14.3581C4.73264 14.5557 5.00056 14.6666 5.27992 14.6666H11.7199C12.2999 14.6666 12.7733 14.1933 12.7733 13.6133C12.7733 13.0333 12.3033 12.5633 11.7199 12.56H9.55325V11.7733C10.6433 11.57 11.6033 10.99 12.2933 10.1766C13.9699 9.55665 15.1666 7.94665 15.1666 6.05331V4.55665C15.1666 3.93998 14.6666 3.43998 14.0466 3.43998ZM9.55325 8.06998C9.55325 8.34934 9.44228 8.61726 9.24474 8.8148C9.0472 9.01234 8.77928 9.12331 8.49992 9.12331C8.22056 9.12331 7.95264 9.01234 7.7551 8.8148C7.55756 8.61726 7.44658 8.34934 7.44658 8.06998V4.78665C7.44658 4.20665 7.91658 3.73665 8.49992 3.73331C8.63824 3.73331 8.77522 3.76056 8.90301 3.81349C9.03081 3.86643 9.14693 3.94402 9.24474 4.04183C9.34255 4.13964 9.42014 4.25576 9.47307 4.38355C9.52601 4.51135 9.55325 4.64832 9.55325 4.78665V8.06998Z" fill="#373022"/>
</svg>
