<svg width="25" height="24" viewBox="0 0 25 24" fill="none" xmlns="http://www.w3.org/2000/svg">
<path fill-rule="evenodd" clip-rule="evenodd" d="M1.63775 4.20388C3.14638 5.8842 7.13442 8.5167 11.0175 5.60421C11.9183 4.92861 12.6808 4.33658 13.3457 3.82038C16.2636 1.55497 17.3004 0.75 19.8849 0.75C19.6982 0.751829 16.782 10.4407 15.3472 15.2849C10.6083 14.7695 1.23206 11.8319 1.63775 4.20388ZM13.1103 7.91824L11.9231 12.1963L13.2564 12.5665L14.7742 7.09714L12.6993 6.52109L12.3687 7.71236L13.1103 7.91824Z" fill="#BEBCBD"/>
<path d="M21.563 0.887237C21.2859 0.811443 20.9998 0.974695 20.924 1.25187L15.1964 22.2015C15.1206 22.4787 15.2839 22.7648 15.561 22.8406L16.9899 23.2314C17.267 23.3072 17.5531 23.144 17.6288 22.8668L23.3564 1.91715C23.4322 1.63997 23.269 1.35383 22.9919 1.27804L21.563 0.887237Z" fill="#BEBCBD"/>
</svg>
