<svg width="24" height="24" viewBox="0 0 24 24" fill="none" xmlns="http://www.w3.org/2000/svg">
<path d="M21.9131 15.0929C21.435 13.2114 20.3861 11.6507 18.9957 10.6832C19.7158 9.7646 20.0546 8.60554 19.9422 7.44524C19.8397 5.44217 18.3957 3.75998 16.3857 3.34672C15.7188 3.23968 15.0355 3.30326 14.4001 3.53147C14.2976 3.57037 14.2049 3.62385 14.122 3.69191C13.615 3.168 13.0094 2.74888 12.3396 2.45855C11.6699 2.16823 10.9493 2.0124 10.2191 2C7.17482 2.06807 4.75014 4.59135 4.81356 7.59596C4.80381 9.01561 5.33558 10.3769 6.26739 11.4125C4.28667 12.6085 2.77918 14.665 2.11081 17.1689C1.85224 18.1412 2.05226 19.1817 2.64745 19.9547C3.15971 20.6208 3.91102 21 4.70623 21H15.7807C16.5759 21 17.3272 20.6208 17.8395 19.9547C18.2054 19.4783 18.42 18.9046 18.4737 18.3017H19.7714C20.4154 18.3017 21.0252 17.9905 21.4448 17.4557C21.9473 16.8091 22.1229 15.9243 21.9131 15.0929ZM19.9031 16.2597C19.8641 16.3083 19.8105 16.357 19.7714 16.357H18.1225C17.3663 14.2226 15.9856 12.4724 14.2196 11.4076C15.1514 10.3769 15.6831 9.02047 15.6734 7.62027C15.688 6.80348 15.5221 6.02073 15.2099 5.31576C15.488 5.23797 15.7807 5.21366 16.0344 5.25742C17.1321 5.48593 17.9419 6.42426 18.0005 7.58623C18.0981 8.57804 17.6395 9.53582 16.8003 10.0852C16.493 10.2845 16.3271 10.6443 16.3661 11.0041C16.4052 11.3687 16.6491 11.6799 16.9955 11.8063C18.4298 12.3411 19.5616 13.7462 20.0202 15.5645C20.0983 15.8708 20.0056 16.1285 19.9031 16.2597Z" fill="#B7AAA4"/>
</svg>
