<svg width="24" height="24" viewBox="0 0 24 24" fill="none" xmlns="http://www.w3.org/2000/svg">
<path d="M3.11076 13.2198C3.11076 10.0839 4.81636 7.1851 7.5842 5.61628C8.94912 4.84517 10.4902 4.43995 12.0579 4.43995C13.6256 4.43995 15.1667 4.84517 16.5316 5.61628C19.3 7.1851 21.0051 10.0833 21.0051 13.2198C21.0056 18.0696 17 22 12.0582 22C7.11641 22 3.11076 18.0691 3.11076 13.2198ZM7.70754 2.32865C7.79305 2.42217 7.85866 2.5321 7.90038 2.65175C7.9421 2.77141 7.95905 2.8983 7.95022 3.02471C7.94139 3.15112 7.90695 3.27441 7.84899 3.38711C7.79104 3.4998 7.71078 3.59953 7.61309 3.68026L3.64522 7.03233C3.4449 7.19996 3.18775 7.28407 2.92708 7.26721C2.66641 7.25035 2.42224 7.13382 2.24519 6.94178C2.15968 6.84829 2.09406 6.73842 2.05229 6.61881C2.01053 6.4992 1.99349 6.37236 2.00222 6.24598C2.01095 6.11959 2.04526 5.99629 2.10307 5.88356C2.16088 5.77083 2.24098 5.67102 2.33852 5.59017L6.30695 2.2381C6.50747 2.0699 6.76525 1.9857 7.02641 2.00311C7.2892 2.01977 7.5342 2.13755 7.70754 2.32865ZM11.9204 8.22672C11.3726 8.22672 10.9287 8.65559 10.9287 9.18446V13.0154C10.9287 13.3359 11.0943 13.6348 11.3698 13.8126L14.346 15.7281C14.8016 16.0214 15.4183 15.903 15.7222 15.4625C16.0261 15.0225 15.9027 14.4281 15.4472 14.1348L12.9127 12.5032V9.18446C12.9127 8.65559 12.4682 8.22672 11.9204 8.22672ZM16.28 2.33476C16.4554 2.13891 16.7006 2.01953 16.963 2.00219C17.2254 1.98485 17.4842 2.07093 17.6839 2.24199L21.6601 5.65684C22.0734 6.01126 22.1157 6.6279 21.7545 7.03344C21.3929 7.43898 20.7645 7.48064 20.3512 7.12566L16.3744 3.71192C16.2763 3.62873 16.1959 3.52672 16.1378 3.41193C16.0798 3.29713 16.0454 3.17188 16.0366 3.04355C16.0278 2.91523 16.0448 2.78644 16.0866 2.6648C16.1284 2.54316 16.1941 2.43112 16.28 2.33532V2.33476Z" fill="#B7ABA4"/>
</svg>
