<svg width="24" height="24" viewBox="0 0 24 24" fill="none" xmlns="http://www.w3.org/2000/svg">
<path d="M10.6608 17.4608C10.415 17.4608 10.2158 17.66 10.2158 17.9058V19.2425C10.2158 19.4883 10.415 19.6875 10.6608 19.6875C10.9065 19.6875 11.1057 19.4883 11.1057 19.2425V17.9058C11.1075 17.66 10.9065 17.4608 10.6608 17.4608ZM13.3339 17.4608C13.0881 17.4608 12.8889 17.66 12.8889 17.9058V19.2425C12.8889 19.4883 13.0881 19.6875 13.3339 19.6875C13.5796 19.6875 13.7788 19.4883 13.7788 19.2425V17.9058C13.7788 17.66 13.5796 17.4608 13.3339 17.4608ZM7.98944 17.4608C7.74366 17.4608 7.54452 17.66 7.54452 17.9058V19.2425C7.54452 19.4883 7.74366 19.6875 7.98944 19.6875C8.23522 19.6875 8.43436 19.4883 8.43436 19.2425V17.9058C8.43436 17.66 8.23522 17.4608 7.98944 17.4608ZM15.144 7.67673C14.491 6.35078 13.1293 5.4375 11.5524 5.4375C9.43722 5.4375 7.70957 7.07745 7.56067 9.15341C6.00703 9.59659 4.875 10.9548 4.875 12.5625C4.875 14.459 6.45195 16.0057 8.43795 16.1151C8.43795 16.1151 14.8193 16.1259 14.8947 16.1259C17.2305 16.1259 19.125 14.2312 19.125 11.895C19.1214 9.64324 17.3615 7.80772 15.144 7.67673ZM16.0052 17.4608C15.7594 17.4608 15.5603 17.66 15.5603 17.9058V19.2425C15.5603 19.4883 15.7594 19.6875 16.0052 19.6875C16.251 19.6875 16.4501 19.4883 16.4501 19.2425V17.9058C16.4501 17.66 16.251 17.4608 16.0052 17.4608Z" fill="#6A7080"/>
</svg>
