<svg width="24" height="24" viewBox="0 0 24 24" fill="none" xmlns="http://www.w3.org/2000/svg">
<path d="M4.88855 12.9759C4.88855 10.4671 6.25293 8.14808 8.46706 6.89303C9.55892 6.27614 10.7917 5.95196 12.0458 5.95196C13.2999 5.95196 14.5327 6.27614 15.6245 6.89303C17.8391 8.14808 19.203 10.4666 19.203 12.9759C19.2035 16.8557 15.9992 20 12.046 20C8.09285 20 4.88855 16.8553 4.88855 12.9759ZM8.56572 4.26292C8.63413 4.33774 8.68661 4.42568 8.71998 4.5214C8.75335 4.61713 8.76692 4.71864 8.75985 4.81977C8.75279 4.92089 8.72524 5.01953 8.67888 5.10969C8.63252 5.19984 8.56831 5.27963 8.49017 5.3442L5.31609 8.02586C5.15584 8.15997 4.95013 8.22726 4.74161 8.21377C4.53309 8.20028 4.33777 8.10706 4.19614 7.95342C4.12774 7.87863 4.07524 7.79073 4.04183 7.69505C4.00842 7.59936 3.9948 7.49789 4.00178 7.39678C4.00876 7.29567 4.0362 7.19704 4.08245 7.10685C4.12869 7.01667 4.19277 6.93682 4.2708 6.87214L7.44533 4.19048C7.60573 4.05592 7.81194 3.98856 8.02086 4.00249C8.23107 4.01582 8.42706 4.11004 8.56572 4.26292ZM11.9358 8.98138C11.4976 8.98138 11.1425 9.32447 11.1425 9.74757V12.8123C11.1425 13.0688 11.2749 13.3079 11.4954 13.4501L13.8762 14.9824C14.2406 15.2171 14.7339 15.1224 14.977 14.77C15.2201 14.418 15.1214 13.9425 14.757 13.7078L12.7295 12.4026V9.74757C12.7295 9.32447 12.374 8.98138 11.9358 8.98138ZM15.4232 4.26781C15.5636 4.11113 15.7597 4.01562 15.9696 4.00175C16.1795 3.98788 16.3865 4.05674 16.5463 4.19359L19.727 6.92547C20.0577 7.20901 20.0914 7.70232 19.8026 8.02675C19.5132 8.35118 19.0106 8.38451 18.6799 8.10053L15.4987 5.36954C15.4203 5.30298 15.3559 5.22138 15.3095 5.12954C15.2631 5.03771 15.2355 4.9375 15.2285 4.83484C15.2215 4.73218 15.2351 4.62916 15.2685 4.53184C15.3019 4.43453 15.3545 4.3449 15.4232 4.26825V4.26781Z" fill="#B19F81"/>
</svg>
