<svg width="32" height="32" viewBox="0 0 32 32" fill="none" xmlns="http://www.w3.org/2000/svg">
<path d="M8.06534 9.14226L9.57138 10.5281C9.60159 10.5559 9.64267 10.5715 9.68537 10.5711H11.5934L14.9273 7.50322H9.68537C9.64267 7.50322 9.60159 7.51879 9.57138 7.54659L8.06534 8.93247C8.0025 8.99067 8.0025 9.08444 8.06534 9.14226Z" fill="#B19F81"/>
<path d="M17.86 10.5281L19.3661 9.14226C19.4289 9.08444 19.4289 8.99067 19.3661 8.93284L17.86 7.54696C17.8298 7.51916 17.7887 7.5036 17.746 7.5036H15.8384L12.5045 10.5715H17.746C17.7887 10.5715 17.8298 10.5559 17.86 10.5281Z" fill="#B19F81"/>
<path fill-rule="evenodd" clip-rule="evenodd" d="M9.28756 6.49805C9.05283 6.49805 8.82772 6.59129 8.66174 6.75727L7.00728 8.41169C6.66164 8.75733 6.66164 9.31772 7.00727 9.66336L8.66173 11.3178C8.82771 11.4838 9.05283 11.577 9.28756 11.577H18.1438C18.3786 11.577 18.6037 11.4838 18.7697 11.3178L20.4241 9.66335C20.7698 9.31772 20.7698 8.75733 20.4241 8.4117L18.7697 6.75727C18.6037 6.59129 18.3786 6.49805 18.1439 6.49805H9.28756ZM18.316 7.12775L19.8216 8.51326C20.1362 8.80274 20.1362 9.27236 19.822 9.56147L18.316 10.9474C18.1649 11.0864 17.9599 11.1646 17.7464 11.1646H9.68537C9.47189 11.1646 9.26687 11.0864 9.11582 10.9474L7.60978 9.56147C7.2952 9.27199 7.2952 8.80274 7.60978 8.51326L9.11542 7.12775C9.26687 6.98875 9.47148 6.91055 9.68537 6.91055H17.7464C17.9599 6.91055 18.1649 6.98875 18.316 7.12775Z" fill="#B19F81"/>
<path d="M8.06534 22.1247L9.57138 23.5106C9.60159 23.5384 9.64267 23.5539 9.68537 23.5536H11.5934L14.9273 20.4856H9.68537C9.64267 20.4856 9.60159 20.5012 9.57138 20.529L8.06534 21.9149C8.0025 21.9731 8.0025 22.0669 8.06534 22.1247Z" fill="#B19F81"/>
<path d="M17.86 23.5106L19.3661 22.1247C19.4289 22.0669 19.4289 21.9731 19.3661 21.9153L17.86 20.5294C17.8298 20.5016 17.7887 20.486 17.746 20.486H15.8384L12.5045 23.5539H17.746C17.7887 23.5539 17.8298 23.5384 17.86 23.5106Z" fill="#B19F81"/>
<path fill-rule="evenodd" clip-rule="evenodd" d="M9.28756 19.4805C9.05283 19.4805 8.82772 19.5737 8.66174 19.7397L7.00728 21.3941C6.66164 21.7397 6.66164 22.3001 7.00727 22.6458L8.66173 24.3002C8.82771 24.4662 9.05283 24.5595 9.28756 24.5595H18.1438C18.3786 24.5595 18.6037 24.4662 18.7697 24.3002L20.4241 22.6458C20.7698 22.3001 20.7698 21.7398 20.4241 21.3941L18.7697 19.7397C18.6037 19.5737 18.3786 19.4805 18.1439 19.4805H9.28756ZM18.316 20.1102L19.8216 21.4957C20.1362 21.7852 20.1362 22.2548 19.822 22.5439L18.316 23.9298C18.1649 24.0688 17.9599 24.147 17.7464 24.147H9.68537C9.47189 24.147 9.26687 24.0688 9.11582 23.9298L7.60978 22.5439C7.2952 22.2544 7.2952 21.7852 7.60978 21.4957L9.11542 20.1102C9.26687 19.9712 9.47148 19.893 9.68537 19.893H17.7464C17.9599 19.893 18.1649 19.9712 18.316 20.1102Z" fill="#B19F81"/>
<path d="M14.661 15.6345L16.1671 17.0203C16.1973 17.0481 16.2384 17.0637 16.2811 17.0633H18.1891L21.523 13.9954H16.2811C16.2384 13.9954 16.1973 14.011 16.1671 14.0388L14.661 15.4247C14.5982 15.4829 14.5982 15.5766 14.661 15.6345Z" fill="#B19F81"/>
<path d="M24.4557 17.0203L25.9618 15.6345C26.0246 15.5766 26.0246 15.4829 25.9618 15.425L24.4557 14.0391C24.4255 14.0114 24.3844 13.9958 24.3417 13.9958H22.4341L19.1002 17.0637H24.3417C24.3844 17.0637 24.4255 17.0481 24.4557 17.0203Z" fill="#B19F81"/>
<path fill-rule="evenodd" clip-rule="evenodd" d="M15.8833 12.9902C15.6485 12.9902 15.4234 13.0835 15.2574 13.2495L13.603 14.9039C13.2573 15.2495 13.2573 15.8099 13.603 16.1555L15.2574 17.81C15.4234 17.976 15.6485 18.0692 15.8833 18.0692H24.7395C24.9743 18.0692 25.1994 17.976 25.3654 17.81L27.0198 16.1555C27.3655 15.8099 27.3655 15.2495 27.0198 14.9039L25.3654 13.2495C25.1994 13.0835 24.9743 12.9902 24.7396 12.9902H15.8833ZM24.9117 13.6199L26.4173 15.0054C26.7319 15.2949 26.7319 15.7646 26.4177 16.0537L24.9117 17.4395C24.7606 17.5785 24.5556 17.6567 24.3421 17.6567H16.2811C16.0676 17.6567 15.8626 17.5785 15.7115 17.4395L14.2055 16.0537C13.8909 15.7642 13.8909 15.2949 14.2055 15.0054L15.7111 13.6199C15.8626 13.4809 16.0672 13.4027 16.2811 13.4027H24.3421C24.5556 13.4027 24.7606 13.4809 24.9117 13.6199Z" fill="#B19F81"/>
</svg>
