<svg width="24" height="24" viewBox="0 0 24 24" fill="none" xmlns="http://www.w3.org/2000/svg">
<g>
<path d="M11.9986 20C11.1721 20.0022 10.3533 19.8405 9.58964 19.5243C8.82599 19.208 8.13266 18.7433 7.54977 18.1573L5.83999 16.4484C3.38667 13.9955 3.38667 10.004 5.83999 7.55157L7.54932 5.84268C8.13221 5.25665 8.82555 4.79204 9.5892 4.47575C10.3528 4.15945 11.1716 3.99776 11.9982 4.00002C13.6791 4.00002 15.2595 4.65424 16.448 5.84268L18.1568 7.55157C18.743 8.13429 19.2077 8.82753 19.5241 9.59111C19.8405 10.3547 20.0022 11.1735 20 12C20 13.68 19.3453 15.2604 18.1568 16.4489L16.448 18.1573C15.865 18.7434 15.1716 19.208 14.4079 19.5243C13.6441 19.8406 12.8253 20.0022 11.9986 20ZM13.5555 9.77778C13.7323 9.77778 13.9019 9.70755 14.0269 9.58252C14.152 9.4575 14.2222 9.28793 14.2222 9.11112C14.2222 8.93431 14.152 8.76474 14.0269 8.63972C13.9019 8.51469 13.7323 8.44445 13.5555 8.44445H10.8889C10.7121 8.44445 10.5425 8.51469 10.4175 8.63972C10.2924 8.76474 10.2222 8.93431 10.2222 9.11112C10.2222 9.28793 10.2924 9.4575 10.4175 9.58252C10.5425 9.70755 10.7121 9.77778 10.8889 9.77778H13.5555ZM14.8889 12.4444C15.0657 12.4444 15.2352 12.3742 15.3603 12.2492C15.4853 12.1242 15.5555 11.9546 15.5555 11.7778C15.5555 11.601 15.4853 11.4314 15.3603 11.3064C15.2352 11.1814 15.0657 11.1111 14.8889 11.1111H9.55554C9.37873 11.1111 9.20916 11.1814 9.08414 11.3064C8.95911 11.4314 8.88887 11.601 8.88887 11.7778C8.88887 11.9546 8.95911 12.1242 9.08414 12.2492C9.20916 12.3742 9.37873 12.4444 9.55554 12.4444H14.8889ZM13.5569 15.1111C13.7337 15.1111 13.9032 15.0409 14.0283 14.9158C14.1533 14.7908 14.2235 14.6212 14.2235 14.4444C14.2235 14.2676 14.1533 14.0981 14.0283 13.973C13.9032 13.848 13.7337 13.7778 13.5569 13.7778H10.8902C10.7134 13.7778 10.5438 13.848 10.4188 13.973C10.2938 14.0981 10.2235 14.2676 10.2235 14.4444C10.2235 14.6212 10.2938 14.7908 10.4188 14.9158C10.5438 15.0409 10.7134 15.1111 10.8902 15.1111H13.5569Z" fill="#B19F81"/>
</g>
</svg>
