<svg width="24" height="24" viewBox="0 0 24 24" fill="none" xmlns="http://www.w3.org/2000/svg">
<path d="M15.5224 6.95995L18.1464 5.94952L17.139 8.57249L15.5224 6.95995ZM12.0017 16.7909C9.36039 16.7909 7.22102 14.6489 7.22102 12.0052C7.22102 9.36146 9.36039 7.21948 12.0017 7.21948C14.6431 7.21948 16.7824 9.36146 16.7824 12.0052C16.7859 14.6489 14.6431 16.7909 12.0017 16.7909ZM13.7811 9.08116C13.1787 8.77665 12.9018 9.4445 13.4972 9.65213C14.0061 9.85975 15.46 10.7767 15.2073 12.5069C15.1485 12.9222 15.7197 13.0122 15.7785 12.5069C15.602 10.4376 15.1762 9.69365 13.7811 9.08116ZM12.071 3.375L13.2133 5.9426H10.932L12.071 3.375ZM5.95402 5.84917L8.57805 6.85961L6.96485 8.4756L5.95402 5.84917ZM5.94363 10.7871V13.071L3.375 11.9291L5.94363 10.7871ZM8.47418 17.04L5.85364 18.0505L6.861 15.4275L8.47418 17.04ZM11.929 20.625L10.7867 18.0574H13.0714L11.929 20.625ZM18.046 18.1474L15.4254 17.1369L17.0386 15.5244L18.046 18.1474ZM18.0564 13.2094V10.9256L20.625 12.0675L18.0564 13.2094Z" fill="#EBA52C"/>
</svg>
