<svg width="24" height="24" viewBox="0 0 24 24" fill="none" xmlns="http://www.w3.org/2000/svg">
<path d="M11.7412 17.8393H9.29973C8.75684 6.55745 13.8556 5.25 13.8556 5.25C9.06798 8.84785 11.7412 17.8393 11.7412 17.8393ZM6.37575 18C6.37575 18 6.95039 13.06 3.9375 10.735C3.9375 10.735 7.60122 10.1963 8.81717 18H6.37575ZM15.8081 17.8393H12.5539C12.5539 17.8393 11.6967 10.6121 5.23281 6.38102C5.23281 6.38102 11.2173 9.26056 13.0397 12.8364C13.0397 12.8364 13.1508 11.4092 12.2269 9.28577C12.2301 9.28577 16.1129 13.7752 15.8081 17.8393ZM16.9478 17.8393H14.3445C15.8271 9.12509 19.875 6.70237 19.875 6.70237C17.0875 12.7859 16.9478 17.8393 16.9478 17.8393Z" fill="#48B212"/>
</svg>
