<svg width="16" height="16" viewBox="0 0 16 16" fill="none" xmlns="http://www.w3.org/2000/svg">
<path d="M14.175 4.0188C14.1875 4.02349 14.1969 4.02974 14.2094 4.03442L14.2157 3.98286L14.175 4.0188ZM1.62661 4.01099C1.63286 4.00786 1.64067 4.0063 1.64692 4.00161L1.62036 3.97974L1.62661 4.01099ZM13.6532 4.63755C13.5422 4.63755 13.4422 4.6813 13.3688 4.75161C13.3641 4.7563 13.3625 4.75474 13.3641 4.74849L10.6188 7.22505L8.38286 2.74536C8.27817 2.6063 8.11255 2.5188 7.92505 2.5188C7.7063 2.5188 7.51567 2.64224 7.4188 2.82192L5.22036 7.22505L2.38755 4.6688C2.32817 4.63599 2.25942 4.61724 2.18599 4.61724C1.95942 4.61724 1.77661 4.80161 1.77661 5.02661C1.77661 5.04536 1.77349 5.05474 1.76724 5.05474L2.6438 11.6032C2.6438 11.5782 2.64224 11.5532 2.63911 11.5266C2.69224 11.9829 3.00005 12.361 3.41411 12.5172C3.37661 12.5032 3.33911 12.4922 3.30474 12.486C4.18442 12.8157 5.91099 13.0297 7.90005 13.011C9.89849 12.9938 11.6407 12.7469 12.5329 12.3985C12.5 12.4047 12.4657 12.4141 12.4282 12.4282C12.8422 12.2704 13.15 11.8922 13.2032 11.436C13.1969 11.4891 13.1969 11.5391 13.2 11.5844L14.0704 5.07036C14.0672 5.06724 14.0641 5.05786 14.0641 5.0438C14.0641 4.82192 13.8813 4.63755 13.6532 4.63755Z" fill="#CD9400"/>
</svg>
