<svg width="22" height="20" viewBox="0 0 22 20" fill="none" xmlns="http://www.w3.org/2000/svg">
<path d="M18.4673 3.33344H14.4006L16.1562 1.689C16.4229 1.42233 16.4229 1.00011 16.1562 0.755664C16.0229 0.622331 15.8451 0.555664 15.6451 0.555664C15.4673 0.555664 15.2895 0.622331 15.134 0.755664L12.3784 3.33344H9.68954L6.93398 0.755664C6.80065 0.622331 6.62287 0.555664 6.42287 0.555664C6.2451 0.555664 6.06732 0.622331 5.91176 0.755664C5.6451 1.02233 5.6451 1.44455 5.91176 1.689L7.66732 3.33344H3.53398C1.75621 3.33344 0.333984 4.93344 0.333984 6.93344V14.7334C0.333984 16.7334 1.75621 18.3334 3.53398 18.3334H4.53398C4.53398 18.9334 5.06732 19.4446 5.71176 19.4446C6.35621 19.4446 6.88954 18.9557 6.88954 18.3334H15.1784C15.1784 18.9334 15.7118 19.4446 16.3562 19.4446C17.0007 19.4446 17.534 18.9557 17.534 18.3334H18.4451C20.2229 18.3334 21.6451 16.7112 21.6451 14.7334V6.93344C21.6673 4.93344 20.2451 3.33344 18.4673 3.33344ZM15.3784 11.4668L8.97843 15.2001C8.4451 15.5112 8.00065 15.2668 8.00065 14.6223V7.13344C8.00065 6.51122 8.4451 6.24455 8.97843 6.55566L15.3784 10.3112C15.9118 10.6446 15.9118 11.1334 15.3784 11.4668Z" fill="white"/>
</svg>
